<svg width="255" height="100" viewBox="0 0 255 100" fill="none" xmlns="http://www.w3.org/2000/svg">
<g opacity="0.1">
<path d="M152.355 -16.0198L158.246 -39.7797L143.724 -43.3607L137.96 -20.2454C134.163 -21.1943 130.261 -22.0359 126.375 -22.9669L132.176 -46.2434L117.727 -49.8244L111.8 -26.1002C108.649 -26.8164 105.575 -27.5386 102.579 -28.2668L82.6506 -33.2444L78.8011 -17.8103C78.8011 -17.8103 89.2933 -15.411 89.2933 -15.1962C95.1483 -13.7279 96.2044 -9.82464 96.026 -6.79869L89.2758 20.2558C89.7884 20.3791 90.2911 20.5406 90.7795 20.7392L89.2574 20.3632L79.804 58.2503C79.5991 58.91 79.2658 59.5228 78.8231 60.0531C78.3805 60.5835 77.8372 61.021 77.2247 61.3405C76.6123 61.6601 75.9426 61.8553 75.2544 61.9149C74.5661 61.9746 73.8729 61.8974 73.2146 61.688H73.1788C73.3222 61.9029 62.6693 59.0739 62.6693 59.0739L55.5072 75.6182L74.3075 80.3093C77.8885 81.1866 81.2361 82.0998 84.6029 82.9592L78.622 106.97L93.0535 110.551L98.9803 86.7909C102.812 87.8293 106.662 88.8142 110.493 89.7811L104.584 113.434L119.033 117.015L125.014 93.0398C149.651 97.695 168.201 95.815 175.989 73.5412C182.274 55.6362 175.685 45.2512 162.704 38.501C172.14 36.3166 179.266 30.1215 181.164 17.2836L181.325 17.212C183.939 -0.317039 170.582 -9.73508 152.355 -16.0198ZM148.308 63.5144C143.85 81.4194 113.627 71.7507 103.832 69.3336L111.765 37.5163C121.522 39.9693 152.946 44.8036 148.272 63.5144H148.308ZM152.784 16.9614C148.703 33.2907 123.564 24.9828 115.399 22.9595L122.561 -5.88548C130.708 -3.86221 156.992 -0.0663376 152.677 16.9614H152.784Z" fill="black"/>
<path d="M121.5 168.778C95.0962 168.778 69.2854 160.948 47.3314 146.279C25.3775 131.61 8.26643 110.76 -1.83787 86.3663C-11.9422 61.9724 -14.5859 35.13 -9.43477 9.23355C-4.28365 -16.6629 8.43102 -40.4503 27.1013 -59.1206C45.7716 -77.7909 69.559 -90.5056 95.4555 -95.6567C121.352 -100.808 148.194 -98.1641 172.588 -88.0598C196.982 -77.9555 217.832 -60.8445 232.501 -38.8905C247.17 -16.9366 255 8.87431 255 35.2781C254.96 70.6722 240.882 104.605 215.855 129.633C190.827 154.66 156.894 168.738 121.5 168.778ZM121.5 -94.6409C95.8045 -94.6409 70.686 -87.0212 49.3209 -72.7456C27.9559 -58.4699 11.3038 -38.1793 1.47056 -14.4397C-8.3627 9.29987 -10.9355 35.4222 -5.92258 60.624C-0.909631 85.8259 11.464 108.975 29.6335 127.145C47.803 145.314 70.9523 157.688 96.1541 162.701C121.356 167.714 147.478 165.141 171.218 155.308C194.957 145.474 215.248 128.822 229.524 107.457C243.799 86.0922 251.419 60.9737 251.419 35.2781C251.38 0.833405 237.68 -32.1894 213.324 -56.5455C188.968 -80.9016 155.945 -94.6019 121.5 -94.6409ZM117.021 118.484L99.0952 114.041L105.005 90.385C102.326 89.71 99.632 89.0106 96.9589 88.2955L91.041 112.021L73.1346 107.577L79.119 83.5508C78.42 83.369 77.7192 83.1859 77.0165 83.0018C74.9152 82.4518 72.7845 81.8941 70.5639 81.3494L49.7078 76.1449L58.3212 56.2491L59.8113 56.6452C61.8733 57.1925 64.0507 57.7608 65.8661 58.2233L65.6142 57.8455L70.3764 59.2741C70.8136 59.4182 71.2751 59.4739 71.734 59.4381C72.193 59.4023 72.6402 59.2757 73.0498 59.0656C73.4594 58.8555 73.8232 58.5661 74.12 58.2142C74.4168 57.8623 74.6407 57.455 74.7788 57.0159L83.7973 20.8605L83.7885 20.8578L90.9296 -7.76224C91.0708 -11.1212 89.307 -13.2142 85.541 -14.1575L81.5216 -15.1656L81.6208 -15.2294C79.7206 -15.6901 77.3343 -16.2496 75.0857 -16.7628L73.3052 -17.1693L78.0297 -36.1139L99.6963 -30.7022C102.128 -30.1059 104.619 -29.517 107.171 -28.9353L113.106 -52.6909L131.03 -48.2488L125.234 -24.9906C126.253 -24.7528 127.272 -24.5176 128.291 -24.285C129.983 -23.896 131.668 -23.5096 133.337 -23.1074L139.103 -46.2248L157.098 -41.787L151.168 -17.8678C165.381 -12.7717 182.82 -3.61113 179.779 16.7777L179.634 17.7507L179.462 17.8268C177.686 28.1502 172.448 35.0228 163.859 38.3135C176.398 46.3288 179.83 57.8578 174.362 73.4355C165.726 98.1328 143.778 98.1284 123.027 94.4075L117.021 118.484ZM103.439 111.429L114.412 114.148L120.369 90.2687L122.029 90.5826C150.373 95.9375 164.557 90.6263 170.983 72.2518C176.329 57.0185 172.382 46.578 158.561 39.3906L154.255 37.1517L158.983 36.058C168.86 33.7718 174.451 27.317 176.076 16.3231L176.22 15.3492L176.366 15.2845C177.97 1.54097 169.312 -7.83382 148.455 -15.0255L146.906 -15.5588L152.76 -39.1693L141.713 -41.8926L135.946 -18.7717L134.208 -19.2062C131.997 -19.7596 129.749 -20.2754 127.489 -20.7939C125.876 -21.1646 124.257 -21.5361 122.641 -21.9234L120.884 -22.3448L126.688 -45.6346L115.714 -48.3544L109.795 -24.6635L108.086 -25.0525C104.924 -25.772 101.835 -26.4899 98.8355 -27.226L80.6376 -31.7722L77.6633 -19.8471C80.636 -19.2593 83.5757 -18.5149 86.4698 -17.6169C91.8754 -16.2399 94.7994 -12.5164 94.4961 -7.39139L94.4458 -7.06355L88.1008 18.3672L88.1218 18.3759L87.6956 19.9907L87.6121 19.9697L87.5789 20.0729L87.6782 20.0982L78.2242 57.9855C77.958 58.8822 77.5161 59.7169 76.9242 60.4411C76.3323 61.1653 75.6022 61.7645 74.7765 62.2038C73.9508 62.643 73.0459 62.9136 72.1145 62.9998C71.1832 63.086 70.244 62.986 69.3517 62.7057L69.3565 62.6891C67.9874 62.5046 65.4494 61.8454 60.3826 60.5017L54.6719 73.6935L71.4237 77.8734C73.6557 78.4207 75.8047 78.9828 77.9234 79.538C79.1981 79.8711 80.4619 80.2025 81.7283 80.5259L83.4532 80.9657L77.4753 104.965L88.4321 107.684L94.368 83.8866L96.1319 84.364C99.9332 85.3948 103.794 86.3976 107.607 87.3444L109.348 87.7772L103.439 111.429ZM127.174 75.2016C118.509 75.2016 109.009 72.7047 102.895 71.0986C101.836 70.8206 100.892 70.5724 100.086 70.373L98.3442 69.9428L107.144 34.6434L108.884 35.0814C109.867 35.3288 111.074 35.5998 112.442 35.9084C122.405 38.1527 139.08 41.9086 145.062 51.6173C146.811 54.4223 147.533 57.7474 147.105 61.0253H147.247L146.729 63.2486C146.306 65.1334 145.5 66.911 144.36 68.471C143.221 70.031 141.773 71.3399 140.106 72.3165C136.534 74.4323 131.982 75.2016 127.174 75.2016ZM102.683 67.3411C103.041 67.4346 103.415 67.5326 103.805 67.6349C112.164 69.8336 129.559 74.4008 138.28 69.2356C140.535 67.9345 142.213 65.8288 142.979 63.3413L143.219 62.3822C143.65 60.899 143.766 59.3417 143.558 57.8109C143.351 56.2801 142.824 54.8099 142.013 53.4953C136.822 45.0708 120.45 41.3832 111.654 39.4021C110.981 39.2499 110.346 39.1066 109.756 38.9711L102.683 67.3411ZM133.686 27.957C126.569 27.957 118.965 25.9331 114.047 24.6243C113.143 24.3839 112.336 24.1688 111.651 23.9992L109.913 23.5682L117.938 -8.75264L119.675 -8.32162C120.481 -8.12141 121.467 -7.90373 122.585 -7.65718C130.759 -5.8527 144.439 -2.83121 149.624 5.57488C151.267 8.23135 151.936 11.3768 151.515 14.4723H151.654L151.205 16.6973C150.808 18.5061 150.042 20.2136 148.957 21.7137C147.871 23.2137 146.488 24.4741 144.893 25.4164C141.447 27.2384 137.58 28.1151 133.686 27.957ZM114.247 20.9725C114.48 21.0336 114.72 21.0975 114.968 21.1639C122.213 23.0908 135.698 26.6805 143.074 22.3319C144.971 21.2331 146.43 19.5147 147.208 17.4657L147.625 15.823C148.047 14.4327 148.172 12.9692 147.991 11.5275C147.81 10.0859 147.328 8.69843 146.576 7.45537C142.186 0.337944 128.933 -2.58821 121.813 -4.16016C121.373 -4.25722 120.954 -4.34991 120.556 -4.43908L114.247 20.9725Z" fill="black"/>
</g>
</svg>
