<svg width="30" height="30" viewBox="0 0 30 30" fill="none" xmlns="http://www.w3.org/2000/svg">
<circle cx="15" cy="15" r="15" fill="white"/>
<path d="M11.5147 23C12.1915 23 12.7402 22.4404 12.7402 21.75C12.7402 21.0596 12.1915 20.5 11.5147 20.5C10.8379 20.5 10.2892 21.0596 10.2892 21.75C10.2892 22.4404 10.8379 23 11.5147 23Z" fill="black"/>
<path d="M20.0932 23C20.77 23 21.3187 22.4404 21.3187 21.75C21.3187 21.0596 20.77 20.5 20.0932 20.5C19.4163 20.5 18.8677 21.0596 18.8677 21.75C18.8677 22.4404 19.4163 23 20.0932 23Z" fill="black"/>
<path d="M11.1999 17.375H21.2083L22.6789 9.875H9.90204L9.57767 8H6V9.25H8.54979L10.388 19.875H21.3186V18.625H11.4159L11.1999 17.375Z" fill="black"/>
</svg>
