<svg width="251" height="100" viewBox="0 0 251 100" fill="none" xmlns="http://www.w3.org/2000/svg">
<g opacity="0.2">
<path d="M19.2647 -18.4196L143.364 -57.2729L250.082 17.0346L231.12 140.483L105.409 189.829L0.302658 105.028L19.2647 -18.4196Z" fill="#FF9211"/>
<path d="M39.1698 -2.43402L139.552 -33.8299L225.885 26.2459L210.557 126.033L108.872 165.911L23.8422 97.3532L39.1698 -2.43402Z" fill="black"/>
<path d="M60.5721 14.7921L135.694 -8.70783L200.299 36.2545L188.827 110.941L112.73 140.789L49.1001 89.4782L60.5721 14.7921Z" fill="#FF9211"/>
<path d="M71.7912 24.1525L133.606 4.88278L186.788 41.8163L177.37 103.129L114.755 127.61L62.3735 85.465L71.7912 24.1525Z" fill="black"/>
<path d="M124.813 62.1281L186.788 41.8163L177.37 103.129L114.755 127.61L124.813 62.1281Z" fill="#FF9211"/>
</g>
</svg>
