<svg width="74" height="34" viewBox="0 0 74 34" fill="none" xmlns="http://www.w3.org/2000/svg">
<path d="M6.49414 23.1465C4.54102 23.1465 3.09896 22.6387 2.16797 21.623C1.24349 20.6074 0.78125 19.0286 0.78125 16.8867C0.78125 12.7656 2.71484 10.7051 6.58203 10.7051C7.10938 10.7051 7.65625 10.7572 8.22266 10.8613C8.78906 10.9655 9.26107 11.112 9.63867 11.3008C10.0228 11.4831 10.2148 11.6882 10.2148 11.916C10.2148 12.0788 10.1497 12.2936 10.0195 12.5605C9.88932 12.821 9.73307 13.0521 9.55078 13.2539C9.375 13.4557 9.21875 13.5566 9.08203 13.5566C9.04948 13.5566 8.96159 13.5241 8.81836 13.459C8.50586 13.3288 8.17708 13.2214 7.83203 13.1367C7.49349 13.0456 7.06055 13 6.5332 13C5.51107 13 4.7526 13.3255 4.25781 13.9766C3.76953 14.6211 3.52539 15.5977 3.52539 16.9062C3.52539 18.2148 3.77279 19.2012 4.26758 19.8652C4.76237 20.5293 5.50456 20.8613 6.49414 20.8613C7.00846 20.8613 7.45443 20.8092 7.83203 20.7051C8.21615 20.6009 8.59049 20.4674 8.95508 20.3047C8.97461 20.2982 9.0332 20.2754 9.13086 20.2363C9.22852 20.1908 9.30013 20.168 9.3457 20.168C9.51497 20.168 9.67773 20.2689 9.83398 20.4707C9.99023 20.666 10.1172 20.8906 10.2148 21.1445C10.3125 21.3919 10.3613 21.571 10.3613 21.6816C10.3613 22.0007 10.1465 22.2708 9.7168 22.4922C9.29362 22.7135 8.7793 22.8796 8.17383 22.9902C7.57487 23.0944 7.01497 23.1465 6.49414 23.1465ZM15.7129 23.1465C14.3392 23.1465 13.291 22.7428 12.5684 21.9355C11.8522 21.1283 11.4941 19.9661 11.4941 18.4492C11.4941 16.9388 11.8522 15.7832 12.5684 14.9824C13.291 14.1816 14.3392 13.7812 15.7129 13.7812C17.0866 13.7812 18.1283 14.1816 18.8379 14.9824C19.554 15.7767 19.9121 16.9323 19.9121 18.4492C19.9121 19.9661 19.554 21.1283 18.8379 21.9355C18.1283 22.7428 17.0866 23.1465 15.7129 23.1465ZM15.7129 21.1055C16.2598 21.1055 16.6602 20.8841 16.9141 20.4414C17.1745 19.9987 17.3047 19.3346 17.3047 18.4492C17.3047 17.5703 17.1745 16.9095 16.9141 16.4668C16.6602 16.0241 16.2598 15.8027 15.7129 15.8027C14.6322 15.8027 14.0918 16.6849 14.0918 18.4492C14.0918 19.3281 14.222 19.9922 14.4824 20.4414C14.7493 20.8841 15.1595 21.1055 15.7129 21.1055ZM24.2285 23.1465C23.3561 23.1465 22.7116 22.9186 22.2949 22.4629C21.8783 22.0007 21.6699 21.2878 21.6699 20.3242V14.4355C21.6699 14.2533 21.7546 14.1165 21.9238 14.0254C22.0931 13.9342 22.3568 13.8887 22.7148 13.8887H23.1934C23.5514 13.8887 23.8151 13.9342 23.9844 14.0254C24.1536 14.1165 24.2383 14.2533 24.2383 14.4355V19.9336C24.2383 20.2917 24.3197 20.5618 24.4824 20.7441C24.6452 20.9264 24.9121 21.0176 25.2832 21.0176C25.6022 21.0176 25.8789 20.9167 26.1133 20.7148C26.3542 20.5065 26.5397 20.2721 26.6699 20.0117V14.4355C26.6699 14.2533 26.7546 14.1165 26.9238 14.0254C27.0931 13.9342 27.3568 13.8887 27.7148 13.8887H28.1934C28.5514 13.8887 28.8151 13.9342 28.9844 14.0254C29.1536 14.1165 29.2383 14.2533 29.2383 14.4355V19.9336C29.2383 20.4805 29.2513 20.9102 29.2773 21.2227C29.3099 21.5286 29.349 21.8151 29.3945 22.082C29.4271 22.2578 29.4434 22.3815 29.4434 22.4531C29.4434 22.5833 29.3229 22.6908 29.082 22.7754C28.8411 22.86 28.5645 22.9219 28.252 22.9609C27.946 23 27.6986 23.0195 27.5098 23.0195C27.3014 23.0195 27.1517 22.9382 27.0605 22.7754C26.9759 22.6061 26.9076 22.3685 26.8555 22.0625L26.8066 21.8184C26.5332 22.1895 26.1654 22.5052 25.7031 22.7656C25.2474 23.0195 24.7559 23.1465 24.2285 23.1465ZM32.4316 23.0293C31.7415 23.0293 31.3965 22.847 31.3965 22.4824V16.9746C31.3965 16.1413 31.3411 15.4479 31.2305 14.8945C31.1979 14.7188 31.1816 14.5951 31.1816 14.5234C31.1816 14.3932 31.3021 14.2891 31.543 14.2109C31.7904 14.1263 32.0671 14.0645 32.373 14.0254C32.6855 13.9863 32.9362 13.9668 33.125 13.9668C33.3268 13.9668 33.4668 14.0417 33.5449 14.1914C33.6296 14.3411 33.7044 14.5592 33.7695 14.8457L33.8281 15.0996C34.0495 14.696 34.3034 14.377 34.5898 14.1426C34.8828 13.9017 35.2572 13.7812 35.7129 13.7812C36.0905 13.7812 36.3509 13.8789 36.4941 14.0742C36.6374 14.263 36.709 14.4779 36.709 14.7188C36.709 14.849 36.6862 15.0345 36.6406 15.2754C36.5951 15.5098 36.5299 15.7181 36.4453 15.9004C36.3607 16.0827 36.2663 16.1738 36.1621 16.1738C36.0905 16.1738 35.9831 16.1543 35.8398 16.1152C35.6445 16.0632 35.4785 16.0371 35.3418 16.0371C35.0228 16.0371 34.7428 16.1283 34.502 16.3105C34.2676 16.4863 34.0885 16.6849 33.9648 16.9062V22.4824C33.9648 22.847 33.6133 23.0293 32.9102 23.0293H32.4316ZM40.0781 23.1465C39.6289 23.1465 39.1829 23.0977 38.7402 23C38.2975 22.9023 37.9297 22.7624 37.6367 22.5801C37.3503 22.3978 37.207 22.1895 37.207 21.9551C37.207 21.8118 37.2591 21.6328 37.3633 21.418C37.4674 21.2031 37.5911 21.0176 37.7344 20.8613C37.8841 20.6986 38.0143 20.6172 38.125 20.6172C38.1836 20.6172 38.3105 20.6628 38.5059 20.7539C38.7337 20.8581 38.9518 20.9427 39.1602 21.0078C39.3685 21.0729 39.6061 21.1055 39.873 21.1055C40.2051 21.1055 40.4557 21.0436 40.625 20.9199C40.7943 20.7962 40.8789 20.6139 40.8789 20.373C40.8789 20.1908 40.8268 20.041 40.7227 19.9238C40.625 19.8001 40.498 19.6992 40.3418 19.6211C40.1855 19.543 39.9642 19.4486 39.6777 19.3379L39.3945 19.2305C39.0234 19.0872 38.6979 18.9245 38.418 18.7422C38.138 18.5599 37.9004 18.2962 37.7051 17.9512C37.5098 17.5996 37.4121 17.1569 37.4121 16.623C37.4121 16.0306 37.5391 15.5228 37.793 15.0996C38.0534 14.6699 38.4212 14.3444 38.8965 14.123C39.3717 13.8952 39.9316 13.7812 40.5762 13.7812C40.9473 13.7812 41.3346 13.8171 41.7383 13.8887C42.1419 13.9603 42.4805 14.071 42.7539 14.2207C43.0339 14.3704 43.1738 14.5592 43.1738 14.7871C43.1738 14.9173 43.1315 15.0931 43.0469 15.3145C42.9688 15.5358 42.8711 15.7311 42.7539 15.9004C42.6367 16.0697 42.526 16.1543 42.4219 16.1543C42.3893 16.1543 42.2982 16.125 42.1484 16.0664C41.9466 15.9818 41.7513 15.9167 41.5625 15.8711C41.3802 15.819 41.1686 15.793 40.9277 15.793C40.3158 15.793 40.0098 15.9948 40.0098 16.3984C40.0098 16.5807 40.0651 16.737 40.1758 16.8672C40.293 16.9974 40.4362 17.1048 40.6055 17.1895C40.7747 17.2741 41.0124 17.375 41.3184 17.4922C41.6699 17.6354 41.888 17.7266 41.9727 17.7656C42.4284 17.9935 42.793 18.2962 43.0664 18.6738C43.3464 19.0449 43.4863 19.543 43.4863 20.168C43.4863 20.7604 43.3529 21.2812 43.0859 21.7305C42.819 22.1797 42.4284 22.528 41.9141 22.7754C41.3997 23.0228 40.7878 23.1465 40.0781 23.1465ZM49.0918 23.1465C47.5684 23.1465 46.4323 22.7396 45.6836 21.9258C44.9349 21.1055 44.5605 19.9694 44.5605 18.5176C44.5605 16.8835 44.9349 15.6855 45.6836 14.9238C46.4323 14.1621 47.4642 13.7812 48.7793 13.7812C49.6517 13.7812 50.3646 13.9798 50.918 14.377C51.4779 14.7741 51.8848 15.3079 52.1387 15.9785C52.3991 16.6491 52.5293 17.4076 52.5293 18.2539C52.5293 18.3516 52.4707 18.4818 52.3535 18.6445C52.2428 18.8073 52.1159 18.9538 51.9727 19.084C51.8294 19.2142 51.7188 19.2793 51.6406 19.2793H47.2168C47.2754 19.9434 47.4707 20.4154 47.8027 20.6953C48.1413 20.9688 48.61 21.1055 49.209 21.1055C49.5345 21.1055 49.8275 21.0697 50.0879 20.998C50.3548 20.9199 50.638 20.819 50.9375 20.6953C51.1198 20.6107 51.2435 20.5684 51.3086 20.5684C51.4258 20.5684 51.5527 20.653 51.6895 20.8223C51.8327 20.985 51.9531 21.1738 52.0508 21.3887C52.1549 21.6035 52.207 21.7695 52.207 21.8867C52.207 22.1536 52.0247 22.3815 51.6602 22.5703C51.3021 22.7591 50.8757 22.9023 50.3809 23C49.8926 23.0977 49.4629 23.1465 49.0918 23.1465ZM50.0293 17.5703C50.0293 17.0365 49.9251 16.61 49.7168 16.291C49.5085 15.9655 49.196 15.8027 48.7793 15.8027C47.9199 15.8027 47.3991 16.3919 47.2168 17.5703H50.0293ZM56.6211 23.1465C56.1719 23.1465 55.7259 23.0977 55.2832 23C54.8405 22.9023 54.4727 22.7624 54.1797 22.5801C53.8932 22.3978 53.75 22.1895 53.75 21.9551C53.75 21.8118 53.8021 21.6328 53.9062 21.418C54.0104 21.2031 54.1341 21.0176 54.2773 20.8613C54.4271 20.6986 54.5573 20.6172 54.668 20.6172C54.7266 20.6172 54.8535 20.6628 55.0488 20.7539C55.2767 20.8581 55.4948 20.9427 55.7031 21.0078C55.9115 21.0729 56.1491 21.1055 56.416 21.1055C56.748 21.1055 56.9987 21.0436 57.168 20.9199C57.3372 20.7962 57.4219 20.6139 57.4219 20.373C57.4219 20.1908 57.3698 20.041 57.2656 19.9238C57.168 19.8001 57.041 19.6992 56.8848 19.6211C56.7285 19.543 56.5072 19.4486 56.2207 19.3379L55.9375 19.2305C55.5664 19.0872 55.2409 18.9245 54.9609 18.7422C54.681 18.5599 54.4434 18.2962 54.248 17.9512C54.0527 17.5996 53.9551 17.1569 53.9551 16.623C53.9551 16.0306 54.082 15.5228 54.3359 15.0996C54.5964 14.6699 54.9642 14.3444 55.4395 14.123C55.9147 13.8952 56.4746 13.7812 57.1191 13.7812C57.4902 13.7812 57.8776 13.8171 58.2812 13.8887C58.6849 13.9603 59.0234 14.071 59.2969 14.2207C59.5768 14.3704 59.7168 14.5592 59.7168 14.7871C59.7168 14.9173 59.6745 15.0931 59.5898 15.3145C59.5117 15.5358 59.4141 15.7311 59.2969 15.9004C59.1797 16.0697 59.069 16.1543 58.9648 16.1543C58.9323 16.1543 58.8411 16.125 58.6914 16.0664C58.4896 15.9818 58.2943 15.9167 58.1055 15.8711C57.9232 15.819 57.7116 15.793 57.4707 15.793C56.8587 15.793 56.5527 15.9948 56.5527 16.3984C56.5527 16.5807 56.6081 16.737 56.7188 16.8672C56.8359 16.9974 56.9792 17.1048 57.1484 17.1895C57.3177 17.2741 57.5553 17.375 57.8613 17.4922C58.2129 17.6354 58.431 17.7266 58.5156 17.7656C58.9714 17.9935 59.3359 18.2962 59.6094 18.6738C59.8893 19.0449 60.0293 19.543 60.0293 20.168C60.0293 20.7604 59.8958 21.2812 59.6289 21.7305C59.362 22.1797 58.9714 22.528 58.457 22.7754C57.9427 23.0228 57.3307 23.1465 56.6211 23.1465Z" fill="white"/>
<path d="M66 15.5938L69.5 18.3937L73 15.5938" stroke="white" stroke-width="2" stroke-linecap="round" stroke-linejoin="round"/>
</svg>
