<svg width="161" height="48" viewBox="0 0 161 48" fill="none" xmlns="http://www.w3.org/2000/svg">
<path d="M22.4 15.8C22.8 16.28 23.08 16.6667 23.24 16.96C23.4 17.2533 23.48 17.5333 23.48 17.8C23.48 18.12 23.2667 18.4933 22.84 18.92C22.44 19.3467 22.04 19.56 21.64 19.56C21.1067 19.56 20.68 19.48 20.36 19.32C20.04 19.16 19.7733 18.9067 19.56 18.56C19.1333 17.92 18.6133 17.3733 18 16.92C17.3867 16.44 16.4267 16.2 15.12 16.2C14 16.2 12.72 16.4533 11.28 16.96C9.86667 17.4667 8.85333 18.0933 8.24 18.84C7.70667 19.5067 7.24 20.52 6.84 21.88C6.46667 23.24 6.28 24.56 6.28 25.84C6.28 27.3867 6.61333 28.8133 7.28 30.12C7.97333 31.4 8.96 32.4267 10.24 33.2C11.5467 33.9733 13.1067 34.36 14.92 34.36C15.9067 34.36 16.92 34.1733 17.96 33.8C19.0267 33.4 19.9467 32.76 20.72 31.88H20.68C21.16 31.3733 21.76 31.12 22.48 31.12C22.9067 31.12 23.3067 31.3067 23.68 31.68C24.08 32.0533 24.28 32.4267 24.28 32.8C24.28 33.2 24.2133 33.56 24.08 33.88C23.9733 34.1733 23.76 34.5067 23.44 34.88C22.3467 36.1067 21.0533 36.9467 19.56 37.4C18.0667 37.8533 16.28 38.08 14.2 38.08C12.36 38.08 10.4933 37.64 8.6 36.76C6.73333 35.88 5.29333 34.8133 4.28 33.56C3.74667 32.7867 3.22667 31.68 2.72 30.24C2.24 28.7733 2 27.5867 2 26.68C2 24.36 2.34667 22.16 3.04 20.08C3.76 17.9733 4.82667 16.2933 6.24 15.04C7.17333 14.1867 8.52 13.5467 10.28 13.12C12.04 12.6933 13.6533 12.48 15.12 12.48C16.9067 12.48 18.3067 12.7333 19.32 13.24C20.36 13.72 21.3867 14.5733 22.4 15.8ZM33.3916 36.4C33.3916 36.8533 33.2182 37.2533 32.8716 37.6C32.5249 37.9467 32.0982 38.12 31.5916 38.12C30.7916 38.12 30.2049 37.9733 29.8316 37.68C29.4582 37.36 29.2716 36.7867 29.2716 35.96C29.2716 34.9733 29.2449 33.68 29.1916 32.08C29.1382 30.7467 29.1116 29.6267 29.1116 28.72C29.1116 28.2933 29.1382 27.7333 29.1916 27.04C29.2449 26.4 29.2716 25.92 29.2716 25.6C29.1916 25.0933 28.9916 24.68 28.6716 24.36C28.3516 24.0133 27.9382 23.84 27.4316 23.84C27.1916 23.84 26.9916 23.7333 26.8316 23.52C26.6716 23.28 26.5916 23.04 26.5916 22.8C26.5916 22.1867 26.8316 21.72 27.3116 21.4C27.8182 21.08 28.4182 20.92 29.1116 20.92C30.5516 20.92 31.5516 21.7733 32.1116 23.48C32.8049 22.68 33.5916 22.04 34.4716 21.56C35.3782 21.0533 36.2449 20.8 37.0716 20.8C38.0582 20.8 38.9516 21.0667 39.7516 21.6C40.5782 22.1333 40.9916 22.8533 40.9916 23.76C40.9916 24.2667 40.7649 24.7867 40.3116 25.32C39.8849 25.8533 39.4449 26.12 38.9916 26.12C38.7516 26.12 38.5382 26.0667 38.3516 25.96C38.1916 25.8267 37.9916 25.64 37.7516 25.4C37.4849 25.1333 37.2582 24.9467 37.0716 24.84C36.8849 24.7067 36.6716 24.64 36.4316 24.64C36.0049 24.64 35.6049 24.7067 35.2316 24.84C34.8582 24.9733 34.6049 25.1333 34.4716 25.32C34.0449 25.9867 33.7249 26.5867 33.5116 27.12C33.3249 27.6533 33.2316 28.2267 33.2316 28.84C33.2316 29.2933 33.2182 29.6533 33.1916 29.92L33.1516 32.2C33.1516 32.5467 33.1649 32.9333 33.1916 33.36C33.2182 33.7867 33.2449 34.1067 33.2716 34.32C33.3516 35.04 33.3916 35.7333 33.3916 36.4ZM47.73 46.16C46.2633 46.16 45.1967 45.8933 44.53 45.36C43.89 44.8533 43.57 44.2933 43.57 43.68C43.57 42.7467 44.01 42.28 44.89 42.28C45.1567 42.28 45.5033 42.36 45.93 42.52C46.3567 42.7067 46.7567 42.8 47.13 42.8C47.7167 42.8 48.1967 42.4133 48.57 41.64C48.9433 40.8667 49.3167 39.6133 49.69 37.88C48.8633 36.92 47.85 35.4 46.65 33.32C45.4767 31.24 44.4633 29.2 43.61 27.2C42.7567 25.1733 42.33 23.7333 42.33 22.88C42.33 22.2133 42.5567 21.72 43.01 21.4C43.49 21.08 44.0367 20.92 44.65 20.92C45.13 20.92 45.5033 21.0133 45.77 21.2C46.0367 21.36 46.2233 21.6667 46.33 22.12C46.97 24.3867 47.65 26.3733 48.37 28.08C49.1167 29.7867 50.0633 31.64 51.21 33.64C51.6633 32.6 52.2633 30.8267 53.01 28.32C53.8367 25.52 54.53 23.5333 55.09 22.36C55.33 21.88 55.6233 21.4933 55.97 21.2C56.3433 20.9067 56.7567 20.76 57.21 20.76C57.6633 20.76 58.1433 20.9333 58.65 21.28C59.1833 21.6 59.45 21.9867 59.45 22.44C59.45 22.7067 59.3567 23.0267 59.17 23.4C58.13 25.8 57.21 28.0667 56.41 30.2C55.6367 32.3067 54.89 34.6267 54.17 37.16C53.7433 38.5733 53.29 39.92 52.81 41.2C52.3567 42.48 52.0367 43.2667 51.85 43.56C51.3167 44.3067 50.7167 44.92 50.05 45.4C49.3833 45.9067 48.61 46.16 47.73 46.16ZM63.04 24.08C62.8 24.08 62.5733 24.1067 62.36 24.16C62.1467 24.1867 61.9333 24.2 61.72 24.2C61.4267 24.2 61.1467 24.0667 60.88 23.8C60.64 23.5333 60.52 23.2933 60.52 23.08C60.52 22.3867 60.8667 21.8533 61.56 21.48C62.2533 21.08 62.96 20.88 63.68 20.88C64.2933 20.88 64.92 21.0933 65.56 21.52C66.2267 21.92 66.72 22.44 67.04 23.08C67.7333 22.2533 68.5867 21.6533 69.6 21.28C70.6133 20.9067 71.6667 20.72 72.76 20.72C73.9867 20.72 75.12 21.1067 76.16 21.88C77.2267 22.6533 78.0667 23.64 78.68 24.84C79.2933 26.0133 79.6 27.1867 79.6 28.36C79.6 29.5067 79.48 30.5333 79.24 31.44C79 32.32 78.5733 33.2133 77.96 34.12C77.2667 35.08 76.3333 35.8667 75.16 36.48C74.0133 37.0933 72.64 37.4 71.04 37.4C70.6133 37.4 70.0933 37.2933 69.48 37.08C68.8667 36.84 68.36 36.5867 67.96 36.32C67.7733 38.1333 67.68 39.7067 67.68 41.04C67.68 41.84 67.72 42.6 67.8 43.32C67.8533 44.1733 67.88 44.7867 67.88 45.16C67.88 45.7467 67.68 46.1733 67.28 46.44C66.88 46.7333 66.44 46.88 65.96 46.88C65 46.88 64.36 46.6133 64.04 46.08C63.7467 45.5733 63.6 44.84 63.6 43.88C63.7067 41.5867 63.84 39.4667 64 37.52C64.16 35.12 64.24 31.4133 64.24 26.4C64.24 25.92 64.1467 25.4133 63.96 24.88C63.7733 24.3467 63.4667 24.08 63.04 24.08ZM68.12 32.36C68.2533 32.8667 68.6267 33.2933 69.24 33.64C69.88 33.96 70.4533 34.12 70.96 34.12C72.48 34.12 73.6133 33.7067 74.36 32.88C74.92 32.2933 75.28 31.72 75.44 31.16C75.6267 30.6 75.72 29.7067 75.72 28.48C75.72 27.52 75.5333 26.72 75.16 26.08C74.7867 25.4133 74.3333 24.9333 73.8 24.64C73.2667 24.32 72.76 24.16 72.28 24.16C71.1867 24.16 70.2933 24.4933 69.6 25.16C68.9333 25.8 68.5067 26.68 68.32 27.8C68.1867 28.68 68.12 30.2 68.12 32.36ZM83.2919 24.16C82.9185 24.1067 82.6119 23.9467 82.3719 23.68C82.1585 23.4133 82.0519 23.0933 82.0519 22.72C82.0519 22.5333 82.0919 22.3333 82.1719 22.12C82.2785 21.9067 82.4252 21.72 82.6119 21.56C82.9585 21.2133 83.8919 21.04 85.4119 21.04C85.6252 20 85.7319 18.9467 85.7319 17.88C85.7319 17.48 85.7185 17.1333 85.6919 16.84C85.6652 16.5467 85.6519 16.32 85.6519 16.16C85.6519 15.5733 85.8652 15.1333 86.2919 14.84C86.7452 14.5467 87.2519 14.4 87.8119 14.4C88.5052 14.4 88.9719 14.5733 89.2119 14.92C89.4785 15.2667 89.6119 15.9067 89.6119 16.84C89.6119 18.2267 89.4919 19.5867 89.2519 20.92C89.6785 20.92 90.2652 20.8933 91.0119 20.84C92.0252 20.7867 92.7585 20.76 93.2119 20.76C93.6652 20.76 94.0519 20.88 94.3719 21.12C94.7185 21.3333 94.8919 21.64 94.8919 22.04C94.8919 23.08 94.4252 23.6933 93.4919 23.88C92.5052 24.12 90.9719 24.2667 88.8919 24.32C88.8119 25.36 88.7719 26.4933 88.7719 27.72C88.7719 29.64 88.8919 31.2133 89.1319 32.44C89.2919 33.2933 89.5585 33.92 89.9319 34.32C90.3319 34.6933 90.9185 34.88 91.6919 34.88C92.1452 34.88 92.6119 34.76 93.0919 34.52C93.4119 34.3333 93.7052 34.24 93.9719 34.24C94.3452 34.24 94.6119 34.36 94.7719 34.6C94.9585 34.84 95.0519 35.16 95.0519 35.56C95.0519 36.3067 94.6519 36.9333 93.8519 37.44C93.0519 37.92 92.0252 38.16 90.7719 38.16C89.9985 38.16 89.2119 37.9733 88.4119 37.6C87.6385 37.2267 86.9852 36.76 86.4519 36.2C86.3719 36.12 86.2252 35.8133 86.0119 35.28C85.7985 34.7467 85.6119 34.1733 85.4519 33.56C85.1852 32.3067 85.0519 30.5467 85.0519 28.28C85.0519 27.2933 85.1052 25.9733 85.2119 24.32L83.2919 24.16ZM114.171 25.16C114.384 25.5333 114.558 26.08 114.691 26.8C114.824 27.4933 114.891 28.12 114.891 28.68C114.891 29.72 114.664 31.2 114.211 33.12C112.371 36.48 109.651 38.16 106.051 38.16C104.718 38.16 103.358 37.72 101.971 36.84C100.584 35.96 99.6243 34.9467 99.0909 33.8C98.3709 31.5067 98.0109 30.0533 98.0109 29.44C98.0109 28.3733 98.2376 27.24 98.6909 26.04C99.1709 24.84 99.7709 23.8 100.491 22.92C100.944 22.3067 101.758 21.7867 102.931 21.36C104.104 20.9067 105.171 20.68 106.131 20.68C107.998 20.68 109.584 21.04 110.891 21.76C112.198 22.4533 113.291 23.5867 114.171 25.16ZM110.691 31.6C110.824 31.2533 110.891 30.36 110.891 28.92C110.891 28.1467 110.744 27.3867 110.451 26.64C110.184 25.8933 109.784 25.2533 109.251 24.72C109.198 24.6667 109.051 24.5867 108.811 24.48C108.571 24.3467 108.238 24.2267 107.811 24.12C107.411 23.9867 106.944 23.92 106.411 23.92C104.918 23.92 103.824 24.52 103.131 25.72C102.438 26.92 102.091 28.28 102.091 29.8C102.091 30.0667 102.158 30.5733 102.291 31.32C102.451 32.0667 102.584 32.5333 102.691 32.72C102.771 32.9067 102.971 33.1733 103.291 33.52C103.638 33.84 104.051 34.1333 104.531 34.4C105.038 34.64 105.558 34.76 106.091 34.76C107.291 34.76 108.251 34.48 108.971 33.92C109.691 33.3333 110.264 32.56 110.691 31.6ZM135.96 32.56C136.466 32.56 136.84 32.76 137.08 33.16C137.346 33.5333 137.48 33.9467 137.48 34.4C137.48 34.96 137.386 35.36 137.2 35.6C137.04 35.8133 136.72 36.04 136.24 36.28C135.12 36.8133 133.733 37.24 132.08 37.56C130.426 37.88 128.653 38.04 126.76 38.04C124.386 38.04 122.64 37.64 121.52 36.84C120.426 36.04 119.746 35.08 119.48 33.96C119.24 32.8133 119.12 31.32 119.12 29.48C119.12 27.5067 119.2 25.5733 119.36 23.68C119.52 21.76 119.8 19.32 120.2 16.36C120.386 15.08 120.893 14.16 121.72 13.6C122.546 13.0133 123.453 12.72 124.44 12.72C125.266 12.72 126.613 12.6933 128.48 12.64L131.96 12.6C133.4 12.6 134.44 12.64 135.08 12.72C135.88 12.88 136.466 13.0667 136.84 13.28C137.24 13.4667 137.44 13.8 137.44 14.28C137.44 14.8133 137.253 15.3333 136.88 15.84C136.533 16.3467 136 16.6 135.28 16.6C134.453 16.6 133.266 16.5467 131.72 16.44C130.173 16.3333 129.013 16.28 128.24 16.28C127.573 16.28 126.92 16.32 126.28 16.4C125.533 16.4533 125 16.5467 124.68 16.68C124.36 16.8133 124.173 17.04 124.12 17.36C123.746 20.1067 123.56 22.1333 123.56 23.44C124.173 23.52 124.773 23.56 125.36 23.56C126.106 23.56 126.906 23.52 127.76 23.44C128.613 23.36 129.16 23.3067 129.4 23.28C130.813 23.1467 132.026 23.08 133.04 23.08C133.626 23.08 134.066 23.1867 134.36 23.4C134.68 23.6133 134.84 23.9067 134.84 24.28C134.84 24.8667 134.68 25.32 134.36 25.64C134.066 25.96 133.533 26.2 132.76 26.36C131.826 26.5467 130.666 26.6933 129.28 26.8C127.92 26.9067 126.586 26.96 125.28 26.96C124.826 26.96 124.2 26.9333 123.4 26.88C123.32 28.5067 123.28 30.0133 123.28 31.4C123.28 33.2933 124.533 34.24 127.04 34.24C128.373 34.24 129.48 34.1467 130.36 33.96C131.24 33.7733 132.253 33.5067 133.4 33.16C134.466 32.76 135.32 32.56 135.96 32.56ZM157.43 37.8C156.87 37.8 156.337 37.64 155.83 37.32C155.35 36.9733 154.923 36.6133 154.55 36.24C154.177 35.84 153.923 35.5733 153.79 35.44C153.23 36.24 152.417 36.8933 151.35 37.4C150.283 37.9067 149.257 38.16 148.27 38.16C146.75 38.16 145.403 37.84 144.23 37.2C143.057 36.56 142.15 35.6933 141.51 34.6C140.87 33.48 140.55 32.24 140.55 30.88C140.55 29.6 140.697 28.3733 140.99 27.2C141.31 26 141.737 25 142.27 24.2C142.99 23.1867 143.95 22.3867 145.15 21.8C146.377 21.2133 147.59 20.92 148.79 20.92C149.51 20.92 150.19 21.0533 150.83 21.32C151.47 21.5867 152.03 21.92 152.51 22.32C152.51 20.56 152.497 19.4533 152.47 19V18.12C152.47 15.6133 152.63 13.7867 152.95 12.64C153.243 11.52 153.963 10.96 155.11 10.96C155.723 10.96 156.177 11.0933 156.47 11.36C156.763 11.6267 156.91 12.1333 156.91 12.88C156.91 13.1467 156.843 13.88 156.71 15.08C156.417 18.0667 156.27 21.0533 156.27 24.04C156.27 26.5467 156.31 28.4133 156.39 29.64C156.497 30.84 156.697 31.8 156.99 32.52C157.31 33.24 157.803 33.88 158.47 34.44C158.87 34.76 159.15 35.0267 159.31 35.24C159.497 35.4533 159.59 35.7333 159.59 36.08C159.59 36.5067 159.377 36.9067 158.95 37.28C158.523 37.6267 158.017 37.8 157.43 37.8ZM148.15 34.92C149.563 34.92 150.603 34.48 151.27 33.6C151.963 32.6933 152.31 31.5467 152.31 30.16L152.27 27.92C152.243 27.4933 152.23 26.92 152.23 26.2C151.243 25.0267 150.177 24.44 149.03 24.44C148.257 24.44 147.523 24.64 146.83 25.04C146.163 25.44 145.617 26.0267 145.19 26.8C144.737 27.68 144.51 29.0133 144.51 30.8C144.51 32.0267 144.87 33.0267 145.59 33.8C146.31 34.5467 147.163 34.92 148.15 34.92Z" fill="white"/>
<path d="M104.556 26.6412C102.729 28.0855 100.628 29.1412 98.3888 29.7401C98.256 29.7763 98.1166 29.7737 97.9874 29.7325C97.8583 29.6914 97.745 29.6134 97.6614 29.5081L94.1347 25.1049C94.0193 24.9605 93.9676 24.7749 93.9908 24.5888C94.0141 24.4027 94.1105 24.2314 94.2588 24.1123L104.337 16.04C104.486 15.9213 104.674 15.8647 104.861 15.8826C105.047 15.9005 105.217 15.9916 105.333 16.1357L108.86 20.539C108.944 20.6435 108.996 20.771 109.008 20.9061C109.019 21.0411 108.992 21.1778 108.927 21.2995C107.854 23.3539 106.365 25.1737 104.556 26.6412Z" fill="black"/>
<path d="M101.698 23.0751C101.623 23.135 101.537 23.1798 101.446 23.2068L90.8296 26.3314C90.6927 26.3717 90.548 26.3707 90.414 26.3284C90.28 26.2861 90.163 26.2046 90.078 26.0942C89.993 25.9839 89.9439 25.8499 89.9371 25.7094C89.9303 25.569 89.966 25.4285 90.0398 25.3062L95.6721 15.9586C95.7626 15.8079 95.9052 15.6942 96.0723 15.6394L106.317 12.2702C106.452 12.2258 106.597 12.2221 106.732 12.2595C106.867 12.297 106.986 12.374 107.075 12.4806C107.164 12.5872 107.218 12.7186 107.23 12.858C107.242 12.9973 107.212 13.1384 107.144 13.263L101.883 22.8551C101.836 22.9397 101.773 23.0145 101.698 23.0751Z" fill="black"/>
<path d="M99.232 29.5565C99.6443 29.2263 99.7184 28.6338 99.3975 28.2331C99.0766 27.8324 98.4822 27.7754 98.0699 28.1056C97.6576 28.4358 97.5835 29.0283 97.9044 29.429C98.2253 29.8297 98.8197 29.8867 99.232 29.5565Z" fill="white"/>
<path d="M106.799 12.7761L101.538 22.3683C101.497 22.443 101.441 22.5093 101.374 22.563C101.308 22.6167 101.231 22.6568 101.149 22.6808L90.533 25.8055C90.4004 25.8458 90.2594 25.8413 90.1322 25.7929C90.1445 25.8805 90.1755 25.964 90.2232 26.0378C90.2708 26.1116 90.334 26.174 90.4086 26.221C90.4831 26.2679 90.5673 26.2983 90.6555 26.31C90.7438 26.3218 90.834 26.3147 90.9203 26.2892L101.537 23.1645C101.619 23.1404 101.695 23.1003 101.762 23.0466C101.829 22.9929 101.884 22.9267 101.925 22.8519L107.186 13.2597C107.229 13.1811 107.255 13.0947 107.263 13.0063C107.27 12.9179 107.259 12.8294 107.229 12.7467C107.199 12.6641 107.152 12.5891 107.091 12.5267C107.029 12.4644 106.955 12.4161 106.872 12.385C106.892 12.5187 106.866 12.6562 106.799 12.7761Z" fill="white"/>
<path d="M98.7114 28.778C98.7444 28.7515 98.7659 28.7135 98.7711 28.6721C98.7762 28.6307 98.7647 28.5895 98.739 28.5574L95.4986 24.5116L98.4387 19.772C98.4721 19.7461 98.4941 19.7083 98.4999 19.667C98.5056 19.6257 98.4947 19.5842 98.4696 19.5518C98.4444 19.5193 98.4069 19.4985 98.3655 19.4939C98.3241 19.4893 98.2821 19.5013 98.2487 19.5272L95.3086 24.2668C95.275 24.2925 95.2468 24.3246 95.2257 24.3611C95.2046 24.3976 95.1911 24.4378 95.1859 24.4792C95.1803 24.5205 95.1831 24.5623 95.194 24.6021C95.205 24.6419 95.2239 24.6789 95.2497 24.7109L98.4902 28.7567C98.5159 28.7888 98.5536 28.809 98.5951 28.813C98.6366 28.817 98.6784 28.8044 98.7114 28.778Z" fill="white"/>
</svg>
