<svg width="36" height="18" viewBox="0 0 36 18" fill="none" xmlns="http://www.w3.org/2000/svg">
<path d="M1.5 14.0293C0.809896 14.0293 0.464844 13.847 0.464844 13.4824V2.36914C0.464844 2.18034 0.546224 2.04036 0.708984 1.94922C0.878255 1.85156 1.14193 1.80273 1.5 1.80273H2.11523C2.47331 1.80273 2.73372 1.85156 2.89648 1.94922C3.06576 2.04036 3.15039 2.18034 3.15039 2.36914V6.65625H7.83789V2.36914C7.83789 2.18034 7.92253 2.04036 8.0918 1.94922C8.26107 1.85156 8.52474 1.80273 8.88281 1.80273H9.48828C10.1849 1.80273 10.5332 1.99154 10.5332 2.36914V13.4824C10.5332 13.847 10.1849 14.0293 9.48828 14.0293H8.88281C8.1862 14.0293 7.83789 13.847 7.83789 13.4824V8.95117H3.15039V13.4824C3.15039 13.847 2.80534 14.0293 2.11523 14.0293H1.5ZM16.998 14.1465C15.4746 14.1465 14.3385 13.7396 13.5898 12.9258C12.8411 12.1055 12.4668 10.9694 12.4668 9.51758C12.4668 7.88346 12.8411 6.68555 13.5898 5.92383C14.3385 5.16211 15.3704 4.78125 16.6855 4.78125C17.5579 4.78125 18.2708 4.97982 18.8242 5.37695C19.3841 5.77409 19.791 6.30794 20.0449 6.97852C20.3053 7.64909 20.4355 8.40755 20.4355 9.25391C20.4355 9.35156 20.377 9.48177 20.2598 9.64453C20.1491 9.80729 20.0221 9.95378 19.8789 10.084C19.7357 10.2142 19.625 10.2793 19.5469 10.2793H15.123C15.1816 10.9434 15.377 11.4154 15.709 11.6953C16.0475 11.9688 16.5163 12.1055 17.1152 12.1055C17.4408 12.1055 17.7337 12.0697 17.9941 11.998C18.2611 11.9199 18.5443 11.819 18.8438 11.6953C19.026 11.6107 19.1497 11.5684 19.2148 11.5684C19.332 11.5684 19.459 11.653 19.5957 11.8223C19.7389 11.985 19.8594 12.1738 19.957 12.3887C20.0612 12.6035 20.1133 12.7695 20.1133 12.8867C20.1133 13.1536 19.931 13.3815 19.5664 13.5703C19.2083 13.7591 18.7819 13.9023 18.2871 14C17.7988 14.0977 17.3691 14.1465 16.998 14.1465ZM17.9355 8.57031C17.9355 8.03646 17.8314 7.61003 17.623 7.29102C17.4147 6.96549 17.1022 6.80273 16.6855 6.80273C15.8262 6.80273 15.3053 7.39193 15.123 8.57031H17.9355ZM24.7422 14.1465C23.9154 14.1465 23.2839 13.9154 22.8477 13.4531C22.418 12.9844 22.2031 12.2747 22.2031 11.3242V1.4707C22.2031 1.0931 22.5514 0.904297 23.248 0.904297H23.7363C24.0944 0.904297 24.3548 0.953125 24.5176 1.05078C24.6868 1.14193 24.7715 1.2819 24.7715 1.4707V11.3535C24.7715 11.6204 24.8203 11.8125 24.918 11.9297C25.0156 12.0469 25.1784 12.1055 25.4062 12.1055C25.4648 12.1055 25.5527 12.0924 25.6699 12.0664C25.7025 12.0599 25.735 12.0534 25.7676 12.0469C25.8001 12.0404 25.8359 12.0371 25.875 12.0371C25.9727 12.0371 26.0605 12.125 26.1387 12.3008C26.2233 12.4701 26.2884 12.6621 26.334 12.877C26.3796 13.0853 26.4023 13.222 26.4023 13.2871C26.4023 13.86 25.849 14.1465 24.7422 14.1465ZM28.5508 17.584C28.1927 17.584 27.929 17.5352 27.7598 17.4375C27.5905 17.3464 27.5059 17.2064 27.5059 17.0176V7.97461C27.5059 7.45378 27.4896 7.04688 27.457 6.75391C27.431 6.45443 27.3952 6.16797 27.3496 5.89453C27.3171 5.71875 27.3008 5.59505 27.3008 5.52344C27.3008 5.39323 27.4212 5.28906 27.6621 5.21094C27.903 5.1263 28.1764 5.06445 28.4824 5.02539C28.7949 4.98633 29.0456 4.9668 29.2344 4.9668C29.4427 4.9668 29.5859 5.04492 29.6641 5.20117C29.7487 5.35091 29.8236 5.56901 29.8887 5.85547L29.9375 6.08008C30.1393 5.69596 30.4453 5.38346 30.8555 5.14258C31.2721 4.90169 31.7409 4.78125 32.2617 4.78125C32.8932 4.78125 33.4531 4.96354 33.9414 5.32812C34.4297 5.69271 34.8105 6.22982 35.084 6.93945C35.3639 7.64258 35.5039 8.48568 35.5039 9.46875C35.5039 10.4128 35.3607 11.2363 35.0742 11.9395C34.7878 12.6426 34.3711 13.1862 33.8242 13.5703C33.2773 13.9544 32.6198 14.1465 31.8516 14.1465C31.194 14.1465 30.5983 13.9642 30.0645 13.5996V17.0176C30.0645 17.2064 29.9798 17.3464 29.8105 17.4375C29.6478 17.5352 29.3874 17.584 29.0293 17.584H28.5508ZM31.2852 12.1055C32.3594 12.1055 32.8965 11.2266 32.8965 9.46875C32.8965 7.74349 32.431 6.88086 31.5 6.88086C30.9531 6.88086 30.4746 7.22266 30.0645 7.90625V11.7734C30.4681 11.9948 30.875 12.1055 31.2852 12.1055Z" fill="white"/>
</svg>
