<svg width="172" height="18" viewBox="0 0 172 18" fill="none" xmlns="http://www.w3.org/2000/svg">
<path d="M8.9 10.375C9.48333 11.3583 10.0667 12.2333 10.65 13C11.25 13.75 12.0333 14.675 13 15.775C13.1167 15.8917 13.175 16.025 13.175 16.175C13.175 16.4083 13.0417 16.6083 12.775 16.775C12.525 16.9417 12.2167 17.025 11.85 17.025C11.3333 17.025 10.775 16.8083 10.175 16.375C9.64167 15.9917 9.16667 15.4833 8.75 14.85C8.33333 14.2167 7.85 13.3917 7.3 12.375C6.86667 11.5917 6.60833 11.1333 6.525 11C5.875 11.2667 4.85833 11.4333 3.475 11.5C3.475 12.0667 3.525 12.8333 3.625 13.8C3.725 14.8 3.775 15.525 3.775 15.975C3.775 16.275 3.625 16.525 3.325 16.725C3.04167 16.925 2.71667 17.025 2.35 17.025C1.91667 17.025 1.58333 16.85 1.35 16.5C1.11667 16.0333 0.966667 15.475 0.9 14.825C0.833333 14.175 0.8 13.4 0.8 12.5C0.8 11.55 0.858333 10.475 0.975 9.275C1.075 7.94167 1.125 6.95833 1.125 6.325C1.125 5.80833 1.075 5.11667 0.975 4.25C0.958333 4.1 0.933333 3.84167 0.9 3.475C0.866667 3.10833 0.85 2.775 0.85 2.475C0.85 2.24167 0.933333 2.04167 1.1 1.875C1.28333 1.69167 1.475 1.56667 1.675 1.5C3.025 1.28333 4.34167 1.175 5.625 1.175C7.80833 1.175 9.61667 1.58333 11.05 2.4C12.4833 3.21667 13.2 4.45833 13.2 6.125C13.2 6.64167 13.0833 7.14167 12.85 7.625C12.6333 8.09167 12.3333 8.48333 11.95 8.8C10.9333 9.58333 9.91667 10.1083 8.9 10.375ZM10.575 6.05C10.575 5.25 10.15 4.6 9.3 4.1C8.45 3.58333 7.24167 3.325 5.675 3.325C4.975 3.325 4.28333 3.40833 3.6 3.575L3.625 4.85C3.625 5.58333 3.6 6.3 3.55 7C3.5 7.7 3.475 8.45 3.475 9.25C3.75833 9.18333 4.05833 9.14167 4.375 9.125C4.69167 9.09167 4.9 9.06667 5 9.05C5.73333 8.98333 6.3 8.9 6.7 8.8C7.45 8.56667 8.06667 8.35833 8.55 8.175C9.05 7.975 9.50833 7.7 9.925 7.35C10.3583 6.98333 10.575 6.55 10.575 6.05ZM15.0664 11.7C15.0664 11.0667 15.1831 10.4333 15.4164 9.8C15.6497 9.15 15.9581 8.55833 16.3414 8.025C16.7247 7.49167 17.3331 7.05833 18.1664 6.725C18.9997 6.375 19.7414 6.2 20.3914 6.2C21.0581 6.2 21.7331 6.29167 22.4164 6.475C23.1164 6.65833 23.5997 6.94167 23.8664 7.325C24.4831 8.19167 24.7914 9.04167 24.7914 9.875C24.7914 10.325 24.6914 10.7083 24.4914 11.025C24.3081 11.3417 24.0414 11.6833 23.6914 12.05C23.4081 12.35 22.9581 12.55 22.3414 12.65C21.7414 12.75 21.1414 12.8 20.5414 12.8C20.1581 12.8 19.6914 12.7667 19.1414 12.7C18.5914 12.6167 18.0581 12.5167 17.5414 12.4C17.5747 12.7333 17.6581 13.0583 17.7914 13.375C17.9247 13.6917 18.0831 13.9333 18.2664 14.1C18.5997 14.4167 18.9414 14.6167 19.2914 14.7C19.6581 14.7833 20.1247 14.825 20.6914 14.825C21.2914 14.825 21.8497 14.725 22.3664 14.525C22.7831 14.375 23.1247 14.3 23.3914 14.3C23.7081 14.3 23.9497 14.4 24.1164 14.6C24.2831 14.7833 24.3664 15.025 24.3664 15.325C24.3664 15.7417 24.1247 16.0833 23.6414 16.35C23.1581 16.6167 22.5997 16.8167 21.9664 16.95C21.3497 17.0667 20.8497 17.125 20.4664 17.125C19.6831 17.125 18.9247 16.9833 18.1914 16.7C17.4581 16.4167 16.8497 16.0167 16.3664 15.5C15.9664 15.0333 15.6497 14.475 15.4164 13.825C15.1831 13.1583 15.0664 12.45 15.0664 11.7ZM20.5164 8.325C20.1497 8.325 19.7831 8.4 19.4164 8.55C19.0497 8.68333 18.7497 8.875 18.5164 9.125C18.2164 9.44167 18.0081 9.7 17.8914 9.9C17.7914 10.0833 17.7247 10.3417 17.6914 10.675C18.1081 10.8083 18.9747 10.875 20.2914 10.875C21.0081 10.875 21.5581 10.7667 21.9414 10.55C22.3414 10.3333 22.5414 10.05 22.5414 9.7C22.5414 9.35 22.3247 9.03333 21.8914 8.75C21.4581 8.46667 20.9997 8.325 20.5164 8.325ZM29.9805 13.125C29.9805 13.7583 30.0721 14.25 30.2555 14.6C30.4555 14.9333 30.7055 15.1 31.0055 15.1C31.1721 15.1 31.3305 15.0917 31.4805 15.075C31.6305 15.0417 31.7805 15.025 31.9305 15.025C32.0971 15.025 32.2388 15.1083 32.3555 15.275C32.4888 15.4417 32.5555 15.625 32.5555 15.825C32.5555 16.225 32.3638 16.5417 31.9805 16.775C31.6138 16.9917 31.1138 17.1 30.4805 17.1C30.0305 17.1 29.5721 16.9667 29.1055 16.7C28.6555 16.4167 28.2805 15.9833 27.9805 15.4C27.6805 14.8 27.5305 14.0583 27.5305 13.175C27.5305 11.275 27.5638 9.66667 27.6305 8.35C27.7138 6.78333 27.7555 4.80833 27.7555 2.425C27.7555 1.675 27.7971 1.15 27.8805 0.849999C27.9805 0.616666 28.1388 0.441666 28.3555 0.324999C28.5888 0.191666 28.8305 0.125 29.0805 0.125C29.3305 0.125 29.5471 0.166666 29.7305 0.25C29.9305 0.333333 30.0638 0.466666 30.1305 0.649999C30.1971 0.849999 30.2388 1.05 30.2555 1.25C30.2888 1.43333 30.3055 1.7 30.3055 2.05C30.3055 2.73333 30.2805 3.39167 30.2305 4.025C30.1971 4.79167 30.1805 5.35 30.1805 5.7C30.0471 8.63333 29.9805 11.1083 29.9805 13.125ZM43.7605 17.1C43.1939 17.1 42.7605 17.0167 42.4605 16.85C42.1605 16.6667 41.8355 16.3333 41.4855 15.85C41.0522 16.2333 40.4022 16.5417 39.5355 16.775C38.6855 17.0083 37.9522 17.125 37.3355 17.125C36.3189 17.125 35.4939 16.85 34.8605 16.3C34.2439 15.7333 33.9355 14.9083 33.9355 13.825C33.9355 13.3583 34.0605 12.9333 34.3105 12.55C34.5772 12.15 34.9189 11.8 35.3355 11.5C35.8022 11.1833 36.3522 10.9333 36.9855 10.75C37.6355 10.5667 38.2272 10.475 38.7605 10.475C39.6605 10.475 40.4605 10.5583 41.1605 10.725V10.7C41.1605 9.8 40.9355 9.18333 40.4855 8.85C40.0522 8.5 39.3522 8.325 38.3855 8.325C37.7689 8.325 37.2355 8.6 36.7855 9.15C36.6189 9.36667 36.2689 9.475 35.7355 9.475C35.4689 9.475 35.2689 9.36667 35.1355 9.15C35.0189 8.91667 34.9605 8.68333 34.9605 8.45C34.9605 7.96667 35.1605 7.55 35.5605 7.2C35.9772 6.85 36.4772 6.59167 37.0605 6.425C37.6439 6.24167 38.1855 6.15 38.6855 6.15C39.1689 6.15 39.7439 6.25 40.4105 6.45C41.0772 6.65 41.6189 6.91667 42.0355 7.25C42.5355 7.68333 42.9189 8.19167 43.1855 8.775C43.4689 9.34167 43.6105 9.96667 43.6105 10.65C43.6105 10.8667 43.5939 11.1917 43.5605 11.625C43.5272 12.125 43.5105 12.5333 43.5105 12.85C43.5105 13 43.4939 13.1917 43.4605 13.425C43.4272 13.725 43.4105 13.975 43.4105 14.175C43.4105 14.3917 43.4772 14.6 43.6105 14.8C43.7439 15 43.9272 15.1667 44.1605 15.3C44.3772 15.4167 44.5189 15.5417 44.5855 15.675C44.6522 15.8083 44.6855 15.9583 44.6855 16.125C44.6855 16.2917 44.5772 16.5 44.3605 16.75C44.1605 16.9833 43.9605 17.1 43.7605 17.1ZM38.7605 12.325C38.1105 12.325 37.5355 12.45 37.0355 12.7C36.5355 12.95 36.2855 13.3917 36.2855 14.025C36.2855 14.3417 36.3939 14.6083 36.6105 14.825C36.8439 15.0417 37.0939 15.15 37.3605 15.15C38.0772 15.15 38.6772 15.075 39.1605 14.925C39.6439 14.775 40.2272 14.5 40.9105 14.1C40.9939 13.8333 41.0439 13.4583 41.0605 12.975C41.0605 12.7917 41.0689 12.65 41.0855 12.55C40.1855 12.4 39.4105 12.325 38.7605 12.325ZM46.5652 8.3C46.3319 8.26667 46.1402 8.175 45.9902 8.025C45.8569 7.85833 45.7902 7.65833 45.7902 7.425C45.7902 7.125 45.9069 6.875 46.1402 6.675C46.1902 6.625 46.2736 6.58333 46.3902 6.55C46.5069 6.5 46.5986 6.45833 46.6652 6.425C47.0319 6.30833 47.2652 6.21667 47.3652 6.15C47.7486 5.91667 48.0069 5.53333 48.1402 5C48.2736 4.36667 48.3569 3.93333 48.3902 3.7C48.4236 3.33333 48.5402 3.05833 48.7402 2.875C48.9569 2.675 49.2236 2.575 49.5402 2.575C49.9569 2.575 50.2486 2.68333 50.4152 2.9C50.5819 3.11667 50.6652 3.51667 50.6652 4.1C50.6652 4.86667 50.4819 5.59167 50.1152 6.275C50.3486 6.275 50.7319 6.25833 51.2652 6.225C52.0652 6.19167 52.6236 6.175 52.9402 6.175C53.2236 6.175 53.4652 6.25 53.6652 6.4C53.8819 6.53333 53.9902 6.73333 53.9902 7C53.9902 7.63333 53.6986 8.00833 53.1152 8.125C52.5819 8.275 51.6152 8.36667 50.2152 8.4C50.0986 10.0333 50.0402 11.325 50.0402 12.275C50.0402 12.8583 50.0652 13.275 50.1152 13.525C50.2152 14.0417 50.3819 14.425 50.6152 14.675C50.8652 14.9083 51.2319 15.025 51.7152 15.025C51.9486 15.025 52.2986 14.9667 52.7652 14.85C53.0486 14.7667 53.2736 14.725 53.4402 14.725C53.6569 14.725 53.8236 14.8 53.9402 14.95C54.0569 15.1 54.1152 15.3 54.1152 15.55C54.1152 16 53.8236 16.375 53.2402 16.675C52.6569 16.9583 51.9652 17.1 51.1652 17.1C50.6652 17.1 50.1736 16.9833 49.6902 16.75C49.2069 16.5 48.7986 16.2 48.4652 15.85C48.3986 15.8167 48.2986 15.6333 48.1652 15.3C48.0486 14.9667 47.9319 14.6 47.8152 14.2C47.7652 14 47.7402 13.5167 47.7402 12.75C47.7402 12.0167 47.7902 10.75 47.8902 8.95L47.9152 8.4C47.7986 8.4 47.5819 8.39167 47.2652 8.375C46.9486 8.34167 46.7152 8.31667 46.5652 8.3ZM55.7158 11.35C55.7158 10.75 55.8242 10.1917 56.0408 9.675C56.2575 9.14167 56.5742 8.59167 56.9908 8.025C57.4075 7.45833 57.9825 7.01667 58.7158 6.7C59.4492 6.36667 60.2492 6.2 61.1158 6.2C61.7825 6.2 62.4242 6.34167 63.0408 6.625C63.6742 6.89167 64.2408 7.225 64.7408 7.625C64.8075 7.74167 64.9242 7.95833 65.0908 8.275C65.2575 8.575 65.3742 8.85 65.4408 9.1C65.5242 9.35 65.5658 9.60833 65.5658 9.875C65.5658 10.9917 65.1575 11.7417 64.3408 12.125C63.5242 12.4917 62.4908 12.675 61.2408 12.675C59.9908 12.675 58.9742 12.5917 58.1908 12.425C58.2242 12.7417 58.3075 13.0583 58.4408 13.375C58.5742 13.6917 58.7325 13.9333 58.9158 14.1C59.2492 14.4167 59.5742 14.625 59.8908 14.725C60.2242 14.8083 60.6658 14.85 61.2158 14.85C62.0492 14.85 62.6992 14.6917 63.1658 14.375C63.5992 14.0917 63.9325 13.95 64.1658 13.95C64.4825 13.95 64.7242 14.05 64.8908 14.25C65.0575 14.4333 65.1408 14.675 65.1408 14.975C65.1408 15.6083 64.7325 16.125 63.9158 16.525C63.1158 16.925 62.2075 17.125 61.1908 17.125C60.3908 17.125 59.5992 16.9833 58.8158 16.7C58.0325 16.4167 57.4075 16.0167 56.9408 15.5C56.6242 14.9667 56.3408 14.3167 56.0908 13.55C55.8408 12.7833 55.7158 12.05 55.7158 11.35ZM61.2158 8.25C60.8492 8.25 60.4658 8.31667 60.0658 8.45C59.6825 8.56667 59.3825 8.75 59.1658 9C58.8992 9.28333 58.6992 9.54167 58.5658 9.775C58.4492 10.0083 58.3742 10.3 58.3408 10.65C58.5242 10.65 58.6992 10.6583 58.8658 10.675C59.0325 10.6917 59.1908 10.7083 59.3408 10.725C60.0742 10.7917 60.6242 10.825 60.9908 10.825C61.7242 10.825 62.2825 10.7167 62.6658 10.5C63.0658 10.2833 63.2658 9.99167 63.2658 9.625C63.2658 9.275 63.0408 8.95833 62.5908 8.675C62.1575 8.39167 61.6992 8.25 61.2158 8.25ZM77.9514 1.35C77.9514 1.51667 77.9264 1.725 77.8764 1.975C77.8597 2.075 77.843 2.18333 77.8264 2.3C77.8097 2.41667 77.793 2.55833 77.7764 2.725C77.6264 4.225 77.5514 6.08333 77.5514 8.3C77.5514 10.4 77.643 11.9583 77.8264 12.975C78.0097 13.9917 78.293 14.6 78.6764 14.8L79.1514 15C79.4014 15.0833 79.5847 15.175 79.7014 15.275C79.8347 15.375 79.9014 15.5417 79.9014 15.775C79.9014 16.1083 79.7264 16.4 79.3764 16.65C79.0264 16.8833 78.643 17 78.2264 17C77.793 17 77.368 16.825 76.9514 16.475C76.5347 16.1083 76.193 15.65 75.9264 15.1C75.643 15.7 75.143 16.1833 74.4264 16.55C73.7097 16.9 73.0264 17.075 72.3764 17.075C71.793 17.075 71.2847 17 70.8514 16.85C70.418 16.6833 69.968 16.4333 69.5014 16.1C68.9347 15.7 68.5014 15.1917 68.2014 14.575C67.918 13.9583 67.7764 13.2833 67.7764 12.55C67.7764 11.8167 67.918 11.0417 68.2014 10.225C68.4847 9.39167 68.8097 8.70833 69.1764 8.175C69.6097 7.55833 70.1847 7.1 70.9014 6.8C71.618 6.48333 72.3597 6.325 73.1264 6.325C73.5597 6.325 73.9347 6.40833 74.2514 6.575C74.568 6.725 74.893 6.94167 75.2264 7.225C75.2264 6.39167 75.2097 5.69167 75.1764 5.125C75.1597 4.975 75.1514 4.8 75.1514 4.6C75.1514 3.16667 75.268 2.03333 75.5014 1.2C75.6847 0.499999 76.1264 0.149999 76.8264 0.149999C77.2097 0.149999 77.493 0.233333 77.6764 0.399999C77.8597 0.566666 77.9514 0.883332 77.9514 1.35ZM70.2014 12.5C70.2014 13.35 70.4764 14 71.0264 14.45C71.2764 14.6833 71.4847 14.8417 71.6514 14.925C71.818 15.0083 72.0264 15.05 72.2764 15.05C72.7597 15.05 73.218 14.9167 73.6514 14.65C74.1014 14.3667 74.4514 14 74.7014 13.55C74.968 13.1 75.1014 12.6167 75.1014 12.1L75.0764 9.625C74.7264 9.225 74.4014 8.95 74.1014 8.8C73.818 8.63333 73.518 8.55 73.2014 8.55C72.1347 8.55 71.4014 8.95833 71.0014 9.775C70.7847 10.1583 70.593 10.5917 70.4264 11.075C70.2764 11.5583 70.2014 12.0333 70.2014 12.5ZM99.8652 3.125C100.115 3.425 100.29 3.66667 100.39 3.85C100.49 4.03333 100.54 4.20833 100.54 4.375C100.54 4.575 100.407 4.80833 100.14 5.075C99.8902 5.34167 99.6402 5.475 99.3902 5.475C99.0569 5.475 98.7902 5.425 98.5902 5.325C98.3902 5.225 98.2236 5.06667 98.0902 4.85C97.8236 4.45 97.4986 4.10833 97.1152 3.825C96.7319 3.525 96.1319 3.375 95.3152 3.375C94.6152 3.375 93.8152 3.53333 92.9152 3.85C92.0319 4.16667 91.3986 4.55833 91.0152 5.025C90.6819 5.44167 90.3902 6.075 90.1402 6.925C89.9069 7.775 89.7902 8.6 89.7902 9.4C89.7902 10.3667 89.9986 11.2583 90.4152 12.075C90.8486 12.875 91.4652 13.5167 92.2652 14C93.0819 14.4833 94.0569 14.725 95.1902 14.725C95.8069 14.725 96.4402 14.6083 97.0902 14.375C97.7569 14.125 98.3319 13.725 98.8152 13.175H98.7902C99.0902 12.8583 99.4652 12.7 99.9152 12.7C100.182 12.7 100.432 12.8167 100.665 13.05C100.915 13.2833 101.04 13.5167 101.04 13.75C101.04 14 100.999 14.225 100.915 14.425C100.849 14.6083 100.715 14.8167 100.515 15.05C99.8319 15.8167 99.0236 16.3417 98.0902 16.625C97.1569 16.9083 96.0402 17.05 94.7402 17.05C93.5902 17.05 92.4236 16.775 91.2402 16.225C90.0736 15.675 89.1736 15.0083 88.5402 14.225C88.2069 13.7417 87.8819 13.05 87.5652 12.15C87.2652 11.2333 87.1152 10.4917 87.1152 9.925C87.1152 8.475 87.3319 7.1 87.7652 5.8C88.2152 4.48333 88.8819 3.43333 89.7652 2.65C90.3486 2.11667 91.1902 1.71667 92.2902 1.45C93.3902 1.18333 94.3986 1.05 95.3152 1.05C96.4319 1.05 97.3069 1.20833 97.9402 1.525C98.5902 1.825 99.2319 2.35833 99.8652 3.125ZM113.155 8.975C113.288 9.20833 113.396 9.55 113.48 10C113.563 10.4333 113.605 10.825 113.605 11.175C113.605 11.825 113.463 12.75 113.18 13.95C112.03 16.05 110.33 17.1 108.08 17.1C107.246 17.1 106.396 16.825 105.53 16.275C104.663 15.725 104.063 15.0917 103.73 14.375C103.28 12.9417 103.055 12.0333 103.055 11.65C103.055 10.9833 103.196 10.275 103.48 9.525C103.78 8.775 104.155 8.125 104.605 7.575C104.888 7.19167 105.396 6.86667 106.13 6.6C106.863 6.31667 107.53 6.175 108.13 6.175C109.296 6.175 110.288 6.4 111.105 6.85C111.921 7.28333 112.605 7.99167 113.155 8.975ZM110.98 13C111.063 12.7833 111.105 12.225 111.105 11.325C111.105 10.8417 111.013 10.3667 110.83 9.9C110.663 9.43333 110.413 9.03333 110.08 8.7C110.046 8.66667 109.955 8.61667 109.805 8.55C109.655 8.46667 109.446 8.39167 109.18 8.325C108.93 8.24167 108.638 8.2 108.305 8.2C107.371 8.2 106.688 8.575 106.255 9.325C105.821 10.075 105.605 10.925 105.605 11.875C105.605 12.0417 105.646 12.3583 105.73 12.825C105.83 13.2917 105.913 13.5833 105.98 13.7C106.03 13.8167 106.155 13.9833 106.355 14.2C106.571 14.4 106.83 14.5833 107.13 14.75C107.446 14.9 107.771 14.975 108.105 14.975C108.855 14.975 109.455 14.8 109.905 14.45C110.355 14.0833 110.713 13.6 110.98 13ZM117.123 6.15C118.223 6.15 118.773 6.875 118.773 8.325C118.773 8.50833 118.756 8.91667 118.723 9.55C118.689 10.2833 118.673 10.8583 118.673 11.275C118.673 12.4417 118.831 13.3833 119.148 14.1C119.264 14.3333 119.473 14.5167 119.773 14.65C120.089 14.7833 120.356 14.85 120.573 14.85C120.906 14.85 121.181 14.8083 121.398 14.725C121.614 14.6417 121.814 14.5167 121.998 14.35C122.198 14.1833 122.389 14 122.573 13.8C122.889 13.45 123.089 13.05 123.173 12.6C123.273 12.1333 123.331 11.5167 123.348 10.75C123.348 10.2667 123.373 9.8 123.423 9.35C123.523 8.61667 123.573 7.93333 123.573 7.3C123.573 6.95 123.664 6.65833 123.848 6.425C124.048 6.175 124.331 6.05 124.698 6.05C124.881 6.05 125.098 6.11667 125.348 6.25C125.614 6.36667 125.789 6.5 125.873 6.65C125.989 6.85 126.048 7.125 126.048 7.475C126.048 7.69167 126.023 7.89167 125.973 8.075C125.889 8.325 125.848 8.64167 125.848 9.025C125.848 9.225 125.864 9.55833 125.898 10.025C125.948 10.375 125.973 10.7333 125.973 11.1C125.973 12.2167 126.056 13.0417 126.223 13.575C126.406 14.1417 126.656 14.6417 126.973 15.075C127.306 15.425 127.531 15.6833 127.648 15.85C127.764 16 127.823 16.1333 127.823 16.25C127.823 16.45 127.723 16.6417 127.523 16.825C127.323 17.0083 127.114 17.1 126.898 17.1C126.281 17.1 125.739 16.8917 125.273 16.475C124.823 16.0417 124.489 15.4917 124.273 14.825C124.089 15.0417 123.848 15.3083 123.548 15.625C123.248 15.9417 122.964 16.2 122.698 16.4C122.048 16.8667 121.214 17.1 120.198 17.1C119.781 17.1 119.323 16.975 118.823 16.725C118.339 16.475 117.898 16.15 117.498 15.75C117.098 15.3333 116.823 14.8917 116.673 14.425C116.656 14.3917 116.606 14.2583 116.523 14.025C116.456 13.7917 116.423 13.4417 116.423 12.975L116.398 8.975C116.398 8.74167 116.339 8.375 116.223 7.875C116.123 7.54167 116.073 7.29167 116.073 7.125C116.073 6.84167 116.164 6.60833 116.348 6.425C116.548 6.24167 116.806 6.15 117.123 6.15ZM133.395 16C133.395 16.2833 133.287 16.5333 133.07 16.75C132.853 16.9667 132.587 17.075 132.27 17.075C131.77 17.075 131.403 16.9833 131.17 16.8C130.937 16.6 130.82 16.2417 130.82 15.725C130.82 15.1083 130.803 14.3 130.77 13.3C130.737 12.4667 130.72 11.7667 130.72 11.2C130.72 10.9333 130.737 10.5833 130.77 10.15C130.803 9.75 130.82 9.45 130.82 9.25C130.77 8.93333 130.645 8.675 130.445 8.475C130.245 8.25833 129.987 8.15 129.67 8.15C129.52 8.15 129.395 8.08333 129.295 7.95C129.195 7.8 129.145 7.65 129.145 7.5C129.145 7.11667 129.295 6.825 129.595 6.625C129.912 6.425 130.287 6.325 130.72 6.325C131.62 6.325 132.245 6.85833 132.595 7.925C133.028 7.425 133.52 7.025 134.07 6.725C134.637 6.40833 135.178 6.25 135.695 6.25C136.312 6.25 136.87 6.41667 137.37 6.75C137.887 7.08333 138.145 7.53333 138.145 8.1C138.145 8.41667 138.003 8.74167 137.72 9.075C137.453 9.40833 137.178 9.575 136.895 9.575C136.745 9.575 136.612 9.54167 136.495 9.475C136.395 9.39167 136.27 9.275 136.12 9.125C135.953 8.95833 135.812 8.84167 135.695 8.775C135.578 8.69167 135.445 8.65 135.295 8.65C135.028 8.65 134.778 8.69167 134.545 8.775C134.312 8.85833 134.153 8.95833 134.07 9.075C133.803 9.49167 133.603 9.86667 133.47 10.2C133.353 10.5333 133.295 10.8917 133.295 11.275C133.295 11.5583 133.287 11.7833 133.27 11.95L133.245 13.375C133.245 13.5917 133.253 13.8333 133.27 14.1C133.287 14.3667 133.303 14.5667 133.32 14.7C133.37 15.15 133.395 15.5833 133.395 16ZM146.632 11.6C146.765 11.6833 147.023 11.8417 147.407 12.075C147.807 12.2917 148.073 12.55 148.207 12.85C148.34 13.15 148.407 13.5667 148.407 14.1C148.407 14.7 148.232 15.2333 147.882 15.7C147.532 16.15 147.082 16.5 146.532 16.75C146.148 16.9167 145.732 17.0167 145.282 17.05C144.848 17.0833 144.323 17.1 143.707 17.1C143.373 17.1 142.94 17.05 142.407 16.95C141.89 16.85 141.532 16.7583 141.332 16.675C140.798 16.375 140.348 16.025 139.982 15.625C139.615 15.225 139.432 14.8167 139.432 14.4C139.432 14.0667 139.54 13.8 139.757 13.6C139.973 13.4 140.257 13.3 140.607 13.3C140.79 13.3 140.965 13.35 141.132 13.45C141.315 13.5333 141.44 13.6333 141.507 13.75C141.69 14.1833 141.998 14.5083 142.432 14.725C142.865 14.9417 143.307 15.05 143.757 15.05C145.34 15.05 146.132 14.7667 146.132 14.2C146.132 14.05 146.09 13.9333 146.007 13.85C145.94 13.75 145.84 13.65 145.707 13.55C145.49 13.4 145.182 13.2417 144.782 13.075C144.398 12.9083 144.057 12.7833 143.757 12.7C143.073 12.55 142.407 12.325 141.757 12.025C141.157 11.725 140.665 11.3333 140.282 10.85C139.898 10.35 139.707 9.74167 139.707 9.025C139.707 8.59167 139.865 8.16667 140.182 7.75C140.515 7.31667 140.898 6.99167 141.332 6.775C141.632 6.65833 142.123 6.53333 142.807 6.4C143.49 6.26667 143.957 6.2 144.207 6.2C144.59 6.2 145.007 6.24167 145.457 6.325C145.907 6.39167 146.248 6.50833 146.482 6.675C146.932 6.94167 147.298 7.225 147.582 7.525C147.865 7.80833 148.007 8.13333 148.007 8.5C148.007 8.68333 147.965 8.88333 147.882 9.1C147.798 9.3 147.698 9.425 147.582 9.475C147.332 9.59167 147.04 9.65 146.707 9.65C146.557 9.65 146.432 9.60833 146.332 9.525C146.248 9.44167 146.132 9.30833 145.982 9.125C145.798 8.84167 145.623 8.675 145.457 8.625C145.257 8.575 144.965 8.51667 144.582 8.45C144.198 8.36667 143.94 8.325 143.807 8.325C143.39 8.325 142.99 8.40833 142.607 8.575C142.24 8.74167 142.057 8.96667 142.057 9.25C142.057 9.58333 142.332 9.86667 142.882 10.1C143.232 10.2667 143.615 10.4083 144.032 10.525C144.465 10.6417 144.732 10.7167 144.832 10.75C145.065 10.8 145.365 10.9167 145.732 11.1C146.115 11.2833 146.415 11.45 146.632 11.6ZM150.564 11.35C150.564 10.75 150.673 10.1917 150.889 9.675C151.106 9.14167 151.423 8.59167 151.839 8.025C152.256 7.45833 152.831 7.01667 153.564 6.7C154.298 6.36667 155.098 6.2 155.964 6.2C156.631 6.2 157.273 6.34167 157.889 6.625C158.523 6.89167 159.089 7.225 159.589 7.625C159.656 7.74167 159.773 7.95833 159.939 8.275C160.106 8.575 160.223 8.85 160.289 9.1C160.373 9.35 160.414 9.60833 160.414 9.875C160.414 10.9917 160.006 11.7417 159.189 12.125C158.373 12.4917 157.339 12.675 156.089 12.675C154.839 12.675 153.823 12.5917 153.039 12.425C153.073 12.7417 153.156 13.0583 153.289 13.375C153.423 13.6917 153.581 13.9333 153.764 14.1C154.098 14.4167 154.423 14.625 154.739 14.725C155.073 14.8083 155.514 14.85 156.064 14.85C156.898 14.85 157.548 14.6917 158.014 14.375C158.448 14.0917 158.781 13.95 159.014 13.95C159.331 13.95 159.573 14.05 159.739 14.25C159.906 14.4333 159.989 14.675 159.989 14.975C159.989 15.6083 159.581 16.125 158.764 16.525C157.964 16.925 157.056 17.125 156.039 17.125C155.239 17.125 154.448 16.9833 153.664 16.7C152.881 16.4167 152.256 16.0167 151.789 15.5C151.473 14.9667 151.189 14.3167 150.939 13.55C150.689 12.7833 150.564 12.05 150.564 11.35ZM156.064 8.25C155.698 8.25 155.314 8.31667 154.914 8.45C154.531 8.56667 154.231 8.75 154.014 9C153.748 9.28333 153.548 9.54167 153.414 9.775C153.298 10.0083 153.223 10.3 153.189 10.65C153.373 10.65 153.548 10.6583 153.714 10.675C153.881 10.6917 154.039 10.7083 154.189 10.725C154.923 10.7917 155.473 10.825 155.839 10.825C156.573 10.825 157.131 10.7167 157.514 10.5C157.914 10.2833 158.114 9.99167 158.114 9.625C158.114 9.275 157.889 8.95833 157.439 8.675C157.006 8.39167 156.548 8.25 156.064 8.25ZM169.925 11.275C170.592 11.6583 171.058 12.0417 171.325 12.425C171.592 12.7917 171.725 13.275 171.725 13.875C171.725 14.475 171.55 15.0083 171.2 15.475C170.85 15.925 170.4 16.275 169.85 16.525C169.45 16.7083 168.95 16.85 168.35 16.95C167.767 17.05 167.308 17.1 166.975 17.1C166.392 17.1 165.758 16.9917 165.075 16.775C164.392 16.5583 163.808 16.25 163.325 15.85C162.858 15.45 162.625 14.9833 162.625 14.45C162.625 14.1167 162.733 13.8583 162.95 13.675C163.167 13.475 163.45 13.375 163.8 13.375C164.083 13.375 164.383 13.575 164.7 13.975C165.017 14.325 165.383 14.5917 165.8 14.775C166.233 14.9583 166.658 15.05 167.075 15.05C168.658 15.05 169.45 14.6917 169.45 13.975C169.45 13.825 169.4 13.6833 169.3 13.55C169.2 13.4 169.108 13.3 169.025 13.25C168.875 13.1333 168.667 13.0333 168.4 12.95C168.133 12.8667 167.867 12.8 167.6 12.75C167.333 12.6833 167.133 12.6333 167 12.6C166.867 12.5667 166.583 12.5083 166.15 12.425C165.733 12.3417 165.333 12.2 164.95 12C164.317 11.7 163.8 11.3333 163.4 10.9C163.017 10.4667 162.825 9.90833 162.825 9.225C162.825 8.84167 162.917 8.45833 163.1 8.075C163.3 7.675 163.567 7.375 163.9 7.175C164.4 6.85833 164.95 6.61667 165.55 6.45C166.15 6.28333 166.708 6.2 167.225 6.2C167.642 6.2 168.108 6.24167 168.625 6.325C169.158 6.40833 169.542 6.525 169.775 6.675C170.208 6.90833 170.525 7.15 170.725 7.4C170.925 7.65 171.025 7.96667 171.025 8.35C171.025 8.53333 170.983 8.71667 170.9 8.9C170.817 9.06667 170.717 9.18333 170.6 9.25C170.333 9.35 170.1 9.4 169.9 9.4C169.75 9.4 169.625 9.375 169.525 9.325C169.425 9.25833 169.333 9.19167 169.25 9.125C169.183 9.05833 169.142 9.01667 169.125 9C168.908 8.76667 168.667 8.58333 168.4 8.45C168.133 8.31667 167.742 8.25 167.225 8.25C166.892 8.25 166.567 8.3 166.25 8.4C165.95 8.48333 165.717 8.59167 165.55 8.725C165.417 8.825 165.325 8.91667 165.275 9C165.225 9.06667 165.2 9.15833 165.2 9.275C165.2 9.74167 165.667 10.0833 166.6 10.3C167.55 10.5167 168.05 10.6333 168.1 10.65C168.2 10.6833 168.475 10.7667 168.925 10.9C169.392 11.0333 169.725 11.1583 169.925 11.275Z" fill="black"/>
</svg>
