<svg width="544" height="38" viewBox="0 0 544 38" fill="none" xmlns="http://www.w3.org/2000/svg">
<rect width="544" height="38" rx="19" fill="white"/>
<path d="M46.773 21.647C46.773 22.0543 46.6777 22.4053 46.487 22.7C46.305 22.986 46.0017 23.2503 45.577 23.493C45.291 23.6663 44.9573 23.7963 44.576 23.883C44.1947 23.9697 43.809 24.013 43.419 24.013C43.0203 24.013 42.5263 23.883 41.937 23.623C41.5123 23.415 41.1743 23.168 40.923 22.882C40.6803 22.596 40.559 22.284 40.559 21.946C40.559 21.712 40.611 21.543 40.715 21.439C40.819 21.3263 40.988 21.27 41.222 21.27C41.3433 21.27 41.469 21.322 41.599 21.426C41.729 21.5213 41.807 21.6167 41.833 21.712C41.9543 22.0673 42.1667 22.3403 42.47 22.531C42.7733 22.713 43.1503 22.804 43.601 22.804C44.121 22.804 44.5543 22.7087 44.901 22.518C45.2563 22.3273 45.434 22.0717 45.434 21.751C45.434 21.439 45.2433 21.1617 44.862 20.919C44.4807 20.6763 44.0907 20.5073 43.692 20.412C43.12 20.256 42.613 20.0697 42.171 19.853C41.7117 19.6277 41.3693 19.3503 41.144 19.021C40.9187 18.6917 40.806 18.345 40.806 17.981C40.806 17.643 40.923 17.3007 41.157 16.954C41.391 16.5987 41.6683 16.343 41.989 16.187C42.1623 16.1003 42.457 16.0093 42.873 15.914C43.2977 15.81 43.6053 15.758 43.796 15.758C44.0473 15.758 44.3247 15.7883 44.628 15.849C44.9313 15.9097 45.1783 15.9963 45.369 16.109C45.7503 16.3257 46.032 16.5207 46.214 16.694C46.396 16.8673 46.487 17.084 46.487 17.344C46.487 17.5 46.4263 17.6387 46.305 17.76C46.1923 17.8813 45.993 17.942 45.707 17.942C45.6377 17.942 45.5683 17.9117 45.499 17.851C45.4297 17.7903 45.343 17.6993 45.239 17.578C45.1003 17.396 44.966 17.2747 44.836 17.214C44.706 17.1707 44.5153 17.123 44.264 17.071C44.0213 17.019 43.8047 16.993 43.614 16.993C43.406 16.993 43.1893 17.0363 42.964 17.123C42.7387 17.2097 42.548 17.3353 42.392 17.5C42.2447 17.656 42.171 17.838 42.171 18.046C42.171 18.2193 42.249 18.371 42.405 18.501C42.5697 18.6223 42.7647 18.722 42.99 18.8C43.25 18.904 43.5317 18.995 43.835 19.073C44.2337 19.1943 44.5587 19.307 44.81 19.411C45.07 19.5063 45.3213 19.6277 45.564 19.775C45.9887 20.0263 46.2963 20.2863 46.487 20.555C46.6777 20.815 46.773 21.179 46.773 21.647ZM47.8848 21.244C47.8848 20.9147 47.9455 20.5853 48.0668 20.256C48.1881 19.918 48.3485 19.6103 48.5478 19.333C48.7471 19.0557 49.0635 18.8303 49.4968 18.657C49.9301 18.475 50.3158 18.384 50.6538 18.384C51.0005 18.384 51.3515 18.4317 51.7068 18.527C52.0708 18.6223 52.3221 18.7697 52.4608 18.969C52.7815 19.4197 52.9418 19.8617 52.9418 20.295C52.9418 20.529 52.8898 20.7283 52.7858 20.893C52.6905 21.0577 52.5518 21.2353 52.3698 21.426C52.2225 21.582 51.9885 21.686 51.6678 21.738C51.3558 21.79 51.0438 21.816 50.7318 21.816C50.5325 21.816 50.2898 21.7987 50.0038 21.764C49.7178 21.7207 49.4405 21.6687 49.1718 21.608C49.1891 21.7813 49.2325 21.9503 49.3018 22.115C49.3711 22.2797 49.4535 22.4053 49.5488 22.492C49.7221 22.6567 49.8998 22.7607 50.0818 22.804C50.2725 22.8473 50.5151 22.869 50.8098 22.869C51.1218 22.869 51.4121 22.817 51.6808 22.713C51.8975 22.635 52.0751 22.596 52.2138 22.596C52.3785 22.596 52.5041 22.648 52.5908 22.752C52.6775 22.8473 52.7208 22.973 52.7208 23.129C52.7208 23.3457 52.5951 23.5233 52.3438 23.662C52.0925 23.8007 51.8021 23.9047 51.4728 23.974C51.1521 24.0347 50.8921 24.065 50.6928 24.065C50.2855 24.065 49.8911 23.9913 49.5098 23.844C49.1285 23.6967 48.8121 23.4887 48.5608 23.22C48.3528 22.9773 48.1881 22.687 48.0668 22.349C47.9455 22.0023 47.8848 21.634 47.8848 21.244ZM50.7188 19.489C50.5281 19.489 50.3375 19.528 50.1468 19.606C49.9561 19.6753 49.8001 19.775 49.6788 19.905C49.5228 20.0697 49.4145 20.204 49.3538 20.308C49.3018 20.4033 49.2671 20.5377 49.2498 20.711C49.4665 20.7803 49.9171 20.815 50.6018 20.815C50.9745 20.815 51.2605 20.7587 51.4598 20.646C51.6678 20.5333 51.7718 20.386 51.7718 20.204C51.7718 20.022 51.6591 19.8573 51.4338 19.71C51.2085 19.5627 50.9701 19.489 50.7188 19.489ZM59.1241 24.052C58.8295 24.052 58.6041 24.0087 58.4481 23.922C58.2921 23.8267 58.1231 23.6533 57.9411 23.402C57.7158 23.6013 57.3778 23.7617 56.9271 23.883C56.4851 24.0043 56.1038 24.065 55.7831 24.065C55.2545 24.065 54.8255 23.922 54.4961 23.636C54.1755 23.3413 54.0151 22.9123 54.0151 22.349C54.0151 22.1063 54.0801 21.8853 54.2101 21.686C54.3488 21.478 54.5265 21.296 54.7431 21.14C54.9858 20.9753 55.2718 20.8453 55.6011 20.75C55.9391 20.6547 56.2468 20.607 56.5241 20.607C56.9921 20.607 57.4081 20.6503 57.7721 20.737V20.724C57.7721 20.256 57.6551 19.9353 57.4211 19.762C57.1958 19.58 56.8318 19.489 56.3291 19.489C56.0085 19.489 55.7311 19.632 55.4971 19.918C55.4105 20.0307 55.2285 20.087 54.9511 20.087C54.8125 20.087 54.7085 20.0307 54.6391 19.918C54.5785 19.7967 54.5481 19.6753 54.5481 19.554C54.5481 19.3027 54.6521 19.086 54.8601 18.904C55.0768 18.722 55.3368 18.5877 55.6401 18.501C55.9435 18.4057 56.2251 18.358 56.4851 18.358C56.7365 18.358 57.0355 18.41 57.3821 18.514C57.7288 18.618 58.0105 18.7567 58.2271 18.93C58.4871 19.1553 58.6865 19.4197 58.8251 19.723C58.9725 20.0177 59.0461 20.3427 59.0461 20.698C59.0461 20.8107 59.0375 20.9797 59.0201 21.205C59.0028 21.465 58.9941 21.6773 58.9941 21.842C58.9941 21.92 58.9855 22.0197 58.9681 22.141C58.9508 22.297 58.9421 22.427 58.9421 22.531C58.9421 22.6437 58.9768 22.752 59.0461 22.856C59.1155 22.96 59.2108 23.0467 59.3321 23.116C59.4448 23.1767 59.5185 23.2417 59.5531 23.311C59.5878 23.3803 59.6051 23.4583 59.6051 23.545C59.6051 23.6317 59.5488 23.74 59.4361 23.87C59.3321 23.9913 59.2281 24.052 59.1241 24.052ZM56.5241 21.569C56.1861 21.569 55.8871 21.634 55.6271 21.764C55.3671 21.894 55.2371 22.1237 55.2371 22.453C55.2371 22.6177 55.2935 22.7563 55.4061 22.869C55.5275 22.9817 55.6575 23.038 55.7961 23.038C56.1688 23.038 56.4808 22.999 56.7321 22.921C56.9835 22.843 57.2868 22.7 57.6421 22.492C57.6855 22.3533 57.7115 22.1583 57.7201 21.907C57.7201 21.8117 57.7245 21.738 57.7331 21.686C57.2651 21.608 56.8621 21.569 56.5241 21.569ZM62.5066 23.48C62.5066 23.6273 62.4502 23.7573 62.3376 23.87C62.2249 23.9827 62.0862 24.039 61.9216 24.039C61.6616 24.039 61.4709 23.9913 61.3496 23.896C61.2282 23.792 61.1676 23.6057 61.1676 23.337C61.1676 23.0163 61.1589 22.596 61.1416 22.076C61.1242 21.6427 61.1156 21.2787 61.1156 20.984C61.1156 20.8453 61.1242 20.6633 61.1416 20.438C61.1589 20.23 61.1676 20.074 61.1676 19.97C61.1416 19.8053 61.0766 19.671 60.9726 19.567C60.8686 19.4543 60.7342 19.398 60.5696 19.398C60.4916 19.398 60.4266 19.3633 60.3746 19.294C60.3226 19.216 60.2966 19.138 60.2966 19.06C60.2966 18.8607 60.3746 18.709 60.5306 18.605C60.6952 18.501 60.8902 18.449 61.1156 18.449C61.5836 18.449 61.9086 18.7263 62.0906 19.281C62.3159 19.021 62.5716 18.813 62.8576 18.657C63.1522 18.4923 63.4339 18.41 63.7026 18.41C64.0232 18.41 64.3136 18.4967 64.5736 18.67C64.8422 18.8433 64.9766 19.0773 64.9766 19.372C64.9766 19.5367 64.9029 19.7057 64.7556 19.879C64.6169 20.0523 64.4739 20.139 64.3266 20.139C64.2486 20.139 64.1792 20.1217 64.1186 20.087C64.0666 20.0437 64.0016 19.983 63.9236 19.905C63.8369 19.8183 63.7632 19.7577 63.7026 19.723C63.6419 19.6797 63.5726 19.658 63.4946 19.658C63.3559 19.658 63.2259 19.6797 63.1046 19.723C62.9832 19.7663 62.9009 19.8183 62.8576 19.879C62.7189 20.0957 62.6149 20.2907 62.5456 20.464C62.4849 20.6373 62.4546 20.8237 62.4546 21.023C62.4546 21.1703 62.4502 21.2873 62.4416 21.374L62.4286 22.115C62.4286 22.2277 62.4329 22.3533 62.4416 22.492C62.4502 22.6307 62.4589 22.7347 62.4676 22.804C62.4936 23.038 62.5066 23.2633 62.5066 23.48ZM69.7925 20.061C69.6625 20.061 69.5499 20.0307 69.4545 19.97C69.3679 19.9007 69.2769 19.8097 69.1815 19.697C69.0862 19.5843 68.9822 19.5107 68.8695 19.476C68.7655 19.4413 68.6442 19.424 68.5055 19.424C68.2542 19.424 68.0072 19.502 67.7645 19.658C67.5305 19.8053 67.3355 20.0133 67.1795 20.282C67.0322 20.5507 66.9585 20.8497 66.9585 21.179C66.9585 21.543 67.0279 21.8463 67.1665 22.089C67.3139 22.3317 67.5435 22.544 67.8555 22.726C67.9682 22.7867 68.0982 22.8343 68.2455 22.869C68.4015 22.9037 68.5359 22.921 68.6485 22.921C68.9172 22.921 69.2639 22.804 69.6885 22.57C69.7232 22.5527 69.7882 22.5223 69.8835 22.479C69.9875 22.427 70.0655 22.401 70.1175 22.401C70.2129 22.401 70.3212 22.4487 70.4425 22.544C70.5639 22.6307 70.6245 22.739 70.6245 22.869C70.6245 23.129 70.5119 23.35 70.2865 23.532C70.0699 23.714 69.7969 23.8483 69.4675 23.935C69.1382 24.0217 68.8132 24.065 68.4925 24.065C67.9812 24.065 67.5045 23.948 67.0625 23.714C66.6205 23.48 66.2695 23.155 66.0095 22.739C65.7495 22.323 65.6195 21.855 65.6195 21.335C65.6195 20.7717 65.7452 20.2647 65.9965 19.814C66.2479 19.3547 66.5859 18.995 67.0105 18.735C67.4439 18.4663 67.9119 18.332 68.4145 18.332C68.8999 18.332 69.3462 18.4273 69.7535 18.618C70.1695 18.8087 70.3775 19.099 70.3775 19.489C70.3775 19.8703 70.1825 20.061 69.7925 20.061ZM73.2386 15.758C73.2386 15.9833 73.2342 16.2477 73.2256 16.551C73.2169 16.8457 73.2082 17.071 73.1996 17.227C73.1736 17.669 73.1606 18.111 73.1606 18.553C73.1606 19.1337 73.1736 19.6017 73.1996 19.957C73.3989 19.463 73.6806 19.0903 74.0446 18.839C74.4086 18.579 74.8246 18.449 75.2926 18.449C75.6132 18.449 75.9122 18.592 76.1896 18.878C76.4669 19.164 76.6446 19.4977 76.7226 19.879C76.7312 19.9223 76.7356 19.9873 76.7356 20.074C76.7356 20.178 76.7269 20.3427 76.7096 20.568C76.6836 20.75 76.6706 20.932 76.6706 21.114C76.6706 21.582 76.6879 21.946 76.7226 22.206C76.7572 22.4573 76.8309 22.6653 76.9436 22.83C77.0562 22.986 77.2339 23.1117 77.4766 23.207C77.5719 23.2417 77.6369 23.2893 77.6716 23.35C77.7149 23.402 77.7366 23.4843 77.7366 23.597C77.7366 23.753 77.6542 23.87 77.4896 23.948C77.3336 24.026 77.1819 24.065 77.0346 24.065C76.7312 24.065 76.4582 23.9827 76.2156 23.818C75.9729 23.6533 75.7909 23.4367 75.6696 23.168C75.5829 22.986 75.5266 22.7693 75.5006 22.518C75.4746 22.2667 75.4616 21.972 75.4616 21.634L75.4746 20.503C75.4746 19.8877 75.2752 19.58 74.8766 19.58C74.5906 19.58 74.3132 19.814 74.0446 20.282C73.7759 20.75 73.5592 21.3003 73.3946 21.933C73.2299 22.5657 73.1476 23.0857 73.1476 23.493C73.1476 23.6837 73.0869 23.8267 72.9656 23.922C72.8529 24.0087 72.7359 24.052 72.6146 24.052C72.4239 24.052 72.2506 23.9957 72.0946 23.883C71.9386 23.7617 71.8606 23.6273 71.8606 23.48C71.9212 22.83 71.9516 21.7423 71.9516 20.217C71.9516 19.9397 71.9299 18.9127 71.8866 17.136L71.8476 15.94C71.8476 15.7493 71.9342 15.5847 72.1076 15.446C72.2809 15.2987 72.4759 15.225 72.6926 15.225C72.8832 15.225 73.0219 15.2683 73.1086 15.355C73.1952 15.4417 73.2386 15.576 73.2386 15.758ZM85.3134 17.227C85.1921 17.227 85.0751 17.1967 84.9624 17.136C84.8498 17.0753 84.7718 16.9843 84.7284 16.863C84.6418 16.629 84.5464 16.4643 84.4424 16.369C84.3471 16.265 84.2301 16.213 84.0914 16.213C84.0048 16.213 83.9224 16.278 83.8444 16.408C83.7751 16.538 83.7231 16.7417 83.6884 17.019C83.6278 17.591 83.5974 18.0287 83.5974 18.332C83.7274 18.358 83.9094 18.371 84.1434 18.371C84.2648 18.371 84.4208 18.3623 84.6114 18.345L84.9624 18.332C85.1184 18.332 85.2398 18.3623 85.3264 18.423C85.4131 18.4837 85.4564 18.5833 85.4564 18.722C85.4564 18.9213 85.3958 19.086 85.2744 19.216C85.1531 19.346 85.0101 19.411 84.8454 19.411C84.2214 19.411 83.8011 19.4413 83.5844 19.502C83.5844 20.022 83.6104 20.7673 83.6624 21.738C83.6624 21.8853 83.6711 22.0977 83.6884 22.375L83.7404 23.376C83.7578 23.6273 83.7318 23.805 83.6624 23.909C83.6018 24.0043 83.4674 24.052 83.2594 24.052C82.8781 24.052 82.6311 23.8223 82.5184 23.363C82.4491 23.0337 82.3928 22.5657 82.3494 21.959C82.3148 21.3437 82.2974 20.802 82.2974 20.334C82.2974 20.0913 82.3104 19.8097 82.3364 19.489C82.3191 19.4803 82.2714 19.476 82.1934 19.476C82.1154 19.476 82.0591 19.4803 82.0244 19.489C81.7644 19.5063 81.5738 19.515 81.4524 19.515C81.3744 19.515 81.2964 19.4587 81.2184 19.346C81.1404 19.2333 81.1014 19.1033 81.1014 18.956C81.1014 18.8693 81.1318 18.7913 81.1924 18.722C81.2531 18.644 81.3268 18.5877 81.4134 18.553C81.5434 18.4837 81.7298 18.449 81.9724 18.449H82.3624C82.3624 17.2357 82.4968 16.3907 82.7654 15.914C83.0254 15.4633 83.4544 15.238 84.0524 15.238C84.3298 15.238 84.5941 15.2943 84.8454 15.407C85.1054 15.5197 85.3134 15.6757 85.4694 15.875C85.6341 16.0743 85.7164 16.2997 85.7164 16.551C85.7164 16.8197 85.6818 17.0017 85.6124 17.097C85.5431 17.1837 85.4434 17.227 85.3134 17.227ZM91.5522 19.827C91.6215 19.9483 91.6779 20.126 91.7212 20.36C91.7645 20.5853 91.7862 20.789 91.7862 20.971C91.7862 21.2137 91.7472 21.517 91.6692 21.881C91.5912 22.2363 91.5262 22.4747 91.4742 22.596C91.0062 23.5667 90.1049 24.052 88.7702 24.052C88.3455 24.052 87.9295 23.9133 87.5222 23.636C87.1149 23.35 86.8245 23.0163 86.6512 22.635L86.5602 22.375C86.5515 22.3403 86.5039 22.2103 86.4172 21.985C86.3392 21.751 86.3002 21.5733 86.3002 21.452C86.3002 21.0967 86.3869 20.685 86.5602 20.217C86.7335 19.749 86.9329 19.3763 87.1582 19.099C87.3055 18.8997 87.5872 18.7307 88.0032 18.592C88.4192 18.4447 88.7875 18.371 89.1082 18.371C89.7062 18.371 90.1872 18.4837 90.5512 18.709C90.9239 18.9343 91.2575 19.307 91.5522 19.827ZM90.3562 21.92C90.3909 21.8593 90.4212 21.751 90.4472 21.595C90.4732 21.439 90.4862 21.257 90.4862 21.049C90.4862 20.7977 90.4385 20.5507 90.3432 20.308C90.2565 20.0653 90.1265 19.8573 89.9532 19.684C89.9445 19.6667 89.9142 19.6407 89.8622 19.606C89.8102 19.5627 89.7279 19.5237 89.6152 19.489C89.5025 19.4457 89.3595 19.424 89.1862 19.424C88.8482 19.424 88.5622 19.5237 88.3282 19.723C88.0942 19.9223 87.9165 20.1693 87.7952 20.464C87.6825 20.7587 87.6262 21.049 87.6262 21.335C87.6262 21.413 87.6522 21.5733 87.7042 21.816C87.7562 22.0587 87.7952 22.2147 87.8212 22.284C87.8905 22.4053 88.0249 22.5483 88.2242 22.713C88.4235 22.869 88.6489 22.947 88.9002 22.947C89.2902 22.947 89.5935 22.856 89.8102 22.674C90.0355 22.492 90.2175 22.2407 90.3562 21.92ZM93.0838 19.437C92.8584 19.281 92.7458 19.1163 92.7458 18.943C92.7458 18.8217 92.7978 18.709 92.9018 18.605C93.0058 18.501 93.1618 18.449 93.3698 18.449C93.6124 18.449 93.8291 18.514 94.0198 18.644C94.2191 18.7653 94.3578 18.943 94.4358 19.177C94.6351 18.943 94.8604 18.7567 95.1118 18.618C95.3718 18.4793 95.6361 18.41 95.9048 18.41C96.2254 18.41 96.5158 18.4967 96.7758 18.67C97.0358 18.8433 97.1658 19.0773 97.1658 19.372C97.1658 19.5367 97.0921 19.7057 96.9448 19.879C96.8061 20.0523 96.6631 20.139 96.5158 20.139C96.4378 20.139 96.3684 20.1217 96.3078 20.087C96.2558 20.0437 96.1908 19.983 96.1128 19.905C96.0261 19.8183 95.9524 19.7577 95.8918 19.723C95.8311 19.6797 95.7618 19.658 95.6838 19.658C95.5451 19.658 95.4151 19.6797 95.2938 19.723C95.1724 19.7663 95.0901 19.8183 95.0468 19.879C94.9081 20.0957 94.8041 20.2907 94.7348 20.464C94.6741 20.6373 94.6438 20.8237 94.6438 21.023C94.6438 21.1703 94.6394 21.2873 94.6308 21.374L94.6178 22.115C94.6178 22.2277 94.6221 22.3533 94.6308 22.492C94.6394 22.6307 94.6481 22.7347 94.6568 22.804C94.6828 23.038 94.6958 23.2633 94.6958 23.48C94.6958 23.6273 94.6394 23.7573 94.5268 23.87C94.4141 23.9827 94.2754 24.039 94.1108 24.039C93.8508 24.039 93.6601 23.9913 93.5388 23.896C93.4174 23.792 93.3568 23.6057 93.3568 23.337L93.3438 22.505C93.3351 22.3403 93.3308 22.1063 93.3308 21.803L93.3438 20.945C93.3611 20.529 93.3698 20.191 93.3698 19.931C93.3698 19.8357 93.3481 19.749 93.3048 19.671C93.2701 19.593 93.1964 19.515 93.0838 19.437ZM105.519 19.658C105.519 19.84 105.48 19.9787 105.402 20.074C105.333 20.1693 105.216 20.217 105.051 20.217C104.93 20.217 104.826 20.1867 104.739 20.126C104.661 20.0653 104.557 19.9613 104.427 19.814C104.323 19.7013 104.202 19.6103 104.063 19.541C103.933 19.4717 103.816 19.437 103.712 19.437C103.183 19.437 102.802 19.5497 102.568 19.775C102.421 19.931 102.299 20.139 102.204 20.399C102.109 20.6503 102.061 20.9103 102.061 21.179C102.061 21.569 102.117 21.881 102.23 22.115C102.343 22.349 102.542 22.5483 102.828 22.713C102.932 22.7737 103.079 22.8257 103.27 22.869C103.461 22.9037 103.617 22.921 103.738 22.921C103.903 22.921 104.076 22.8777 104.258 22.791C104.44 22.6957 104.596 22.5743 104.726 22.427C104.891 22.2363 105.09 22.141 105.324 22.141C105.419 22.141 105.528 22.1887 105.649 22.284C105.779 22.3793 105.844 22.492 105.844 22.622C105.844 22.882 105.718 23.1247 105.467 23.35C105.224 23.5667 104.925 23.74 104.57 23.87C104.215 23.9913 103.885 24.052 103.582 24.052C103.071 24.052 102.594 23.935 102.152 23.701C101.719 23.467 101.372 23.1463 101.112 22.739C100.852 22.323 100.722 21.855 100.722 21.335C100.722 20.8843 100.804 20.4467 100.969 20.022C101.142 19.5973 101.372 19.2507 101.658 18.982C101.892 18.7653 102.182 18.605 102.529 18.501C102.876 18.397 103.24 18.345 103.621 18.345C103.89 18.345 104.167 18.397 104.453 18.501C104.739 18.605 104.969 18.7437 105.142 18.917C105.393 19.1683 105.519 19.4153 105.519 19.658ZM112.094 19.827C112.163 19.9483 112.22 20.126 112.263 20.36C112.306 20.5853 112.328 20.789 112.328 20.971C112.328 21.309 112.254 21.79 112.107 22.414C111.509 23.506 110.625 24.052 109.455 24.052C109.022 24.052 108.58 23.909 108.129 23.623C107.678 23.337 107.366 23.0077 107.193 22.635C106.959 21.8897 106.842 21.4173 106.842 21.218C106.842 20.8713 106.916 20.503 107.063 20.113C107.219 19.723 107.414 19.385 107.648 19.099C107.795 18.8997 108.06 18.7307 108.441 18.592C108.822 18.4447 109.169 18.371 109.481 18.371C110.088 18.371 110.603 18.488 111.028 18.722C111.453 18.9473 111.808 19.3157 112.094 19.827ZM110.963 21.92C111.006 21.8073 111.028 21.517 111.028 21.049C111.028 20.7977 110.98 20.5507 110.885 20.308C110.798 20.0653 110.668 19.8573 110.495 19.684C110.478 19.6667 110.43 19.6407 110.352 19.606C110.274 19.5627 110.166 19.5237 110.027 19.489C109.897 19.4457 109.745 19.424 109.572 19.424C109.087 19.424 108.731 19.619 108.506 20.009C108.281 20.399 108.168 20.841 108.168 21.335C108.168 21.4217 108.19 21.5863 108.233 21.829C108.285 22.0717 108.328 22.2233 108.363 22.284C108.389 22.3447 108.454 22.4313 108.558 22.544C108.671 22.648 108.805 22.7433 108.961 22.83C109.126 22.908 109.295 22.947 109.468 22.947C109.858 22.947 110.17 22.856 110.404 22.674C110.638 22.4833 110.824 22.232 110.963 21.92ZM114.157 18.358C114.729 18.358 115.015 18.735 115.015 19.489C115.015 19.5843 115.007 19.7967 114.989 20.126C114.972 20.5073 114.963 20.8063 114.963 21.023C114.963 21.6297 115.046 22.1193 115.21 22.492C115.271 22.6133 115.379 22.7087 115.535 22.778C115.7 22.8473 115.839 22.882 115.951 22.882C116.125 22.882 116.268 22.8603 116.38 22.817C116.493 22.7737 116.597 22.7087 116.692 22.622C116.796 22.5353 116.896 22.44 116.991 22.336C117.156 22.154 117.26 21.946 117.303 21.712C117.355 21.4693 117.386 21.1487 117.394 20.75C117.394 20.4987 117.407 20.256 117.433 20.022C117.485 19.6407 117.511 19.2853 117.511 18.956C117.511 18.774 117.559 18.6223 117.654 18.501C117.758 18.371 117.906 18.306 118.096 18.306C118.192 18.306 118.304 18.3407 118.434 18.41C118.573 18.4707 118.664 18.54 118.707 18.618C118.768 18.722 118.798 18.865 118.798 19.047C118.798 19.1597 118.785 19.2637 118.759 19.359C118.716 19.489 118.694 19.6537 118.694 19.853C118.694 19.957 118.703 20.1303 118.72 20.373C118.746 20.555 118.759 20.7413 118.759 20.932C118.759 21.5127 118.803 21.9417 118.889 22.219C118.985 22.5137 119.115 22.7737 119.279 22.999C119.453 23.181 119.57 23.3153 119.63 23.402C119.691 23.48 119.721 23.5493 119.721 23.61C119.721 23.714 119.669 23.8137 119.565 23.909C119.461 24.0043 119.353 24.052 119.24 24.052C118.92 24.052 118.638 23.9437 118.395 23.727C118.161 23.5017 117.988 23.2157 117.875 22.869C117.78 22.9817 117.654 23.1203 117.498 23.285C117.342 23.4497 117.195 23.584 117.056 23.688C116.718 23.9307 116.285 24.052 115.756 24.052C115.54 24.052 115.301 23.987 115.041 23.857C114.79 23.727 114.56 23.558 114.352 23.35C114.144 23.1333 114.001 22.9037 113.923 22.661C113.915 22.6437 113.889 22.5743 113.845 22.453C113.811 22.3317 113.793 22.1497 113.793 21.907L113.78 19.827C113.78 19.7057 113.75 19.515 113.689 19.255C113.637 19.0817 113.611 18.9517 113.611 18.865C113.611 18.7177 113.659 18.5963 113.754 18.501C113.858 18.4057 113.993 18.358 114.157 18.358ZM122.619 23.48C122.619 23.6273 122.563 23.7573 122.45 23.87C122.337 23.9827 122.199 24.039 122.034 24.039C121.774 24.039 121.583 23.9913 121.462 23.896C121.341 23.792 121.28 23.6057 121.28 23.337C121.28 23.0163 121.271 22.596 121.254 22.076C121.237 21.6427 121.228 21.2787 121.228 20.984C121.228 20.8453 121.237 20.6633 121.254 20.438C121.271 20.23 121.28 20.074 121.28 19.97C121.254 19.8053 121.189 19.671 121.085 19.567C120.981 19.4543 120.847 19.398 120.682 19.398C120.604 19.398 120.539 19.3633 120.487 19.294C120.435 19.216 120.409 19.138 120.409 19.06C120.409 18.8607 120.487 18.709 120.643 18.605C120.808 18.501 121.003 18.449 121.228 18.449C121.696 18.449 122.021 18.7263 122.203 19.281C122.428 19.021 122.684 18.813 122.97 18.657C123.265 18.4923 123.546 18.41 123.815 18.41C124.136 18.41 124.426 18.4967 124.686 18.67C124.955 18.8433 125.089 19.0773 125.089 19.372C125.089 19.5367 125.015 19.7057 124.868 19.879C124.729 20.0523 124.586 20.139 124.439 20.139C124.361 20.139 124.292 20.1217 124.231 20.087C124.179 20.0437 124.114 19.983 124.036 19.905C123.949 19.8183 123.876 19.7577 123.815 19.723C123.754 19.6797 123.685 19.658 123.607 19.658C123.468 19.658 123.338 19.6797 123.217 19.723C123.096 19.7663 123.013 19.8183 122.97 19.879C122.831 20.0957 122.727 20.2907 122.658 20.464C122.597 20.6373 122.567 20.8237 122.567 21.023C122.567 21.1703 122.563 21.2873 122.554 21.374L122.541 22.115C122.541 22.2277 122.545 22.3533 122.554 22.492C122.563 22.6307 122.571 22.7347 122.58 22.804C122.606 23.038 122.619 23.2633 122.619 23.48ZM129.502 21.192C129.571 21.2353 129.706 21.3177 129.905 21.439C130.113 21.5517 130.252 21.686 130.321 21.842C130.39 21.998 130.425 22.2147 130.425 22.492C130.425 22.804 130.334 23.0813 130.152 23.324C129.97 23.558 129.736 23.74 129.45 23.87C129.251 23.9567 129.034 24.0087 128.8 24.026C128.575 24.0433 128.302 24.052 127.981 24.052C127.808 24.052 127.582 24.026 127.305 23.974C127.036 23.922 126.85 23.8743 126.746 23.831C126.469 23.675 126.235 23.493 126.044 23.285C125.853 23.077 125.758 22.8647 125.758 22.648C125.758 22.4747 125.814 22.336 125.927 22.232C126.04 22.128 126.187 22.076 126.369 22.076C126.464 22.076 126.555 22.102 126.642 22.154C126.737 22.1973 126.802 22.2493 126.837 22.31C126.932 22.5353 127.093 22.7043 127.318 22.817C127.543 22.9297 127.773 22.986 128.007 22.986C128.83 22.986 129.242 22.8387 129.242 22.544C129.242 22.466 129.22 22.4053 129.177 22.362C129.142 22.31 129.09 22.258 129.021 22.206C128.908 22.128 128.748 22.0457 128.54 21.959C128.341 21.8723 128.163 21.8073 128.007 21.764C127.652 21.686 127.305 21.569 126.967 21.413C126.655 21.257 126.399 21.0533 126.2 20.802C126.001 20.542 125.901 20.2257 125.901 19.853C125.901 19.6277 125.983 19.4067 126.148 19.19C126.321 18.9647 126.521 18.7957 126.746 18.683C126.902 18.6223 127.158 18.5573 127.513 18.488C127.868 18.4187 128.111 18.384 128.241 18.384C128.44 18.384 128.657 18.4057 128.891 18.449C129.125 18.4837 129.303 18.5443 129.424 18.631C129.658 18.7697 129.849 18.917 129.996 19.073C130.143 19.2203 130.217 19.3893 130.217 19.58C130.217 19.6753 130.195 19.7793 130.152 19.892C130.109 19.996 130.057 20.061 129.996 20.087C129.866 20.1477 129.714 20.178 129.541 20.178C129.463 20.178 129.398 20.1563 129.346 20.113C129.303 20.0697 129.242 20.0003 129.164 19.905C129.069 19.7577 128.978 19.671 128.891 19.645C128.787 19.619 128.635 19.5887 128.436 19.554C128.237 19.5107 128.102 19.489 128.033 19.489C127.816 19.489 127.608 19.5323 127.409 19.619C127.218 19.7057 127.123 19.8227 127.123 19.97C127.123 20.1433 127.266 20.2907 127.552 20.412C127.734 20.4987 127.933 20.5723 128.15 20.633C128.375 20.6937 128.514 20.7327 128.566 20.75C128.687 20.776 128.843 20.8367 129.034 20.932C129.233 21.0273 129.389 21.114 129.502 21.192ZM131.547 21.062C131.547 20.75 131.603 20.4597 131.716 20.191C131.829 19.9137 131.993 19.6277 132.21 19.333C132.427 19.0383 132.726 18.8087 133.107 18.644C133.488 18.4707 133.904 18.384 134.355 18.384C134.702 18.384 135.035 18.4577 135.356 18.605C135.685 18.7437 135.98 18.917 136.24 19.125C136.275 19.1857 136.335 19.2983 136.422 19.463C136.509 19.619 136.569 19.762 136.604 19.892C136.647 20.022 136.669 20.1563 136.669 20.295C136.669 20.8757 136.457 21.2657 136.032 21.465C135.607 21.6557 135.07 21.751 134.42 21.751C133.77 21.751 133.241 21.7077 132.834 21.621C132.851 21.7857 132.895 21.9503 132.964 22.115C133.033 22.2797 133.116 22.4053 133.211 22.492C133.384 22.6567 133.553 22.765 133.718 22.817C133.891 22.8603 134.121 22.882 134.407 22.882C134.84 22.882 135.178 22.7997 135.421 22.635C135.646 22.4877 135.82 22.414 135.941 22.414C136.106 22.414 136.231 22.466 136.318 22.57C136.405 22.6653 136.448 22.791 136.448 22.947C136.448 23.2763 136.236 23.545 135.811 23.753C135.395 23.961 134.923 24.065 134.394 24.065C133.978 24.065 133.566 23.9913 133.159 23.844C132.752 23.6967 132.427 23.4887 132.184 23.22C132.019 22.9427 131.872 22.6047 131.742 22.206C131.612 21.8073 131.547 21.426 131.547 21.062ZM134.407 19.45C134.216 19.45 134.017 19.4847 133.809 19.554C133.61 19.6147 133.454 19.71 133.341 19.84C133.202 19.9873 133.098 20.1217 133.029 20.243C132.968 20.3643 132.929 20.516 132.912 20.698C133.007 20.698 133.098 20.7023 133.185 20.711C133.272 20.7197 133.354 20.7283 133.432 20.737C133.813 20.7717 134.099 20.789 134.29 20.789C134.671 20.789 134.962 20.7327 135.161 20.62C135.369 20.5073 135.473 20.3557 135.473 20.165C135.473 19.983 135.356 19.8183 135.122 19.671C134.897 19.5237 134.658 19.45 134.407 19.45Z" fill="black"/>
<path d="M28.3796 24.3454L25.623 21.5889C26.2867 20.7054 26.645 19.63 26.6437 18.525C26.6437 15.7025 24.3475 13.4062 21.525 13.4062C18.7025 13.4062 16.4062 15.7025 16.4062 18.525C16.4062 21.3475 18.7025 23.6437 21.525 23.6437C22.63 23.645 23.7054 23.2867 24.5889 22.623L27.3454 25.3796C27.4849 25.5043 27.6669 25.5709 27.854 25.5657C28.0411 25.5604 28.2191 25.4838 28.3514 25.3514C28.4838 25.2191 28.5604 25.0411 28.5657 24.854C28.5709 24.6669 28.5043 24.4849 28.3796 24.3454ZM17.8687 18.525C17.8687 17.8019 18.0832 17.095 18.4849 16.4937C18.8867 15.8924 19.4577 15.4238 20.1258 15.1471C20.7939 14.8703 21.5291 14.7979 22.2383 14.939C22.9475 15.0801 23.599 15.4283 24.1104 15.9396C24.6217 16.451 24.9699 17.1025 25.111 17.8117C25.2521 18.5209 25.1797 19.2561 24.9029 19.9242C24.6262 20.5923 24.1576 21.1633 23.5563 21.5651C22.955 21.9668 22.2481 22.1812 21.525 22.1812C20.5557 22.1801 19.6264 21.7945 18.9409 21.1091C18.2555 20.4236 17.8699 19.4943 17.8687 18.525Z" fill="black"/>
</svg>
